<svg xmlns="http://www.w3.org/2000/svg" xmlns:xlink="http://www.w3.org/1999/xlink" width="6912" zoomAndPan="magnify" viewBox="0 0 5184 2592.000001" height="3456" preserveAspectRatio="xMidYMid meet" version="1.0"><defs><clipPath id="140760fa87"><path d="M 1 0 L 5183 0 L 5183 2591 L 1 2591 Z M 1 0 " clip-rule="nonzero"/></clipPath><clipPath id="91ca144cd4"><path d="M 740.589844 1868 L 4443.699219 1868 L 4443.699219 2591 L 740.589844 2591 Z M 740.589844 1868 " clip-rule="nonzero"/></clipPath></defs><g clip-path="url(#140760fa87)"><path fill="#ffffff" d="M 1 0 L 5183 0 L 5183 2598.496094 L 1 2598.496094 Z M 1 0 " fill-opacity="1" fill-rule="nonzero"/></g><path fill="#ffffff" d="M 1 0 L 5183 0 L 5183 2591 L 1 2591 Z M 1 0 " fill-opacity="1" fill-rule="nonzero"/><path fill="#d4adfc" d="M 1 0 L 5183 0 L 5183 2591 L 1 2591 Z M 1 0 " fill-opacity="1" fill-rule="nonzero"/><path fill="#d6e6ed" d="M 4152.003906 372.613281 C 4152.003906 372.613281 3663.351562 390.761719 3642.175781 368.070312 C 3621 345.382812 3614.945312 283.359375 3732.9375 293.953125 C 3732.9375 293.953125 3625.527344 154.769531 3790.425781 129.054688 C 3955.335938 103.339844 3935.660156 233.441406 3935.660156 233.441406 C 3935.660156 233.441406 4099.046875 141.160156 4055.179688 290.925781 C 4055.179688 290.925781 4096.042969 260.667969 4108.136719 313.613281 C 4108.136719 313.613281 4362.273438 362.019531 4152.003906 372.613281 " fill-opacity="1" fill-rule="nonzero"/><path fill="#d6e6ed" d="M 1361.644531 857.363281 C 1361.644531 857.363281 1480.210938 856.234375 1463.269531 826.875 C 1446.332031 797.515625 1332.285156 806.550781 1332.285156 806.550781 C 1332.285156 806.550781 1340.191406 759.132812 1304.066406 744.453125 C 1267.925781 729.773438 1231.789062 742.195312 1231.789062 742.195312 C 1231.789062 742.195312 1273.574219 613.480469 1175.339844 607.832031 C 1077.101562 602.1875 1092.914062 715.097656 1092.914062 715.097656 C 1092.914062 715.097656 1073.714844 664.292969 1026.285156 697.027344 C 978.867188 729.773438 1017.25 790.753906 1017.25 790.753906 C 1017.25 790.753906 987.902344 754.617188 948.375 778.332031 C 908.863281 802.03125 917.886719 837.039062 917.886719 837.039062 C 917.886719 837.039062 800.464844 851.71875 835.460938 867.527344 C 870.46875 883.324219 1361.644531 857.363281 1361.644531 857.363281 " fill-opacity="1" fill-rule="nonzero"/><g clip-path="url(#91ca144cd4)"><path fill="#d6e6ed" d="M 4443.699219 2267.859375 C 4443.699219 2466.6875 3729.933594 2627.875 2609.722656 2602.554688 C 1522.945312 2578.003906 740.589844 2407.621094 740.589844 2208.789062 C 740.589844 2009.957031 1464.304688 1868.460938 2551.359375 1868.460938 C 3638.414062 1868.460938 4443.699219 2069.027344 4443.699219 2267.859375 " fill-opacity="1" fill-rule="nonzero"/></g><path fill="#b4ced6" d="M 3688.453125 2181.363281 C 3634.714844 2308.320312 3160.460938 2430.984375 2509.160156 2430.984375 C 1857.867188 2430.984375 1267.996094 2318.484375 1329.875 2181.363281 C 1386.59375 2055.707031 1857.878906 1927.503906 2509.160156 1931.742188 C 3372 1937.375 3744.707031 2048.46875 3688.453125 2181.363281 " fill-opacity="1" fill-rule="nonzero"/><path fill="#cc234b" d="M 1644.328125 1264.539062 C 1644.328125 1264.539062 1623.183594 2169.804688 1644.328125 2204.15625 C 1665.480469 2238.511719 2897.257812 2391.8125 2951.441406 2375.957031 C 3005.621094 2360.101562 3453.667969 2083.890625 3462.921875 2046.894531 C 3472.179688 2009.886719 3462.921875 716.085938 3462.921875 716.085938 L 1644.328125 1264.539062 " fill-opacity="1" fill-rule="nonzero"/><path fill="#af0b3a" d="M 1643 1325.257812 C 1751.875 1339.589844 2947.714844 1496.617188 2957.109375 1484.53125 C 2966.960938 1471.878906 2957.109375 1380.472656 2957.109375 1380.472656 L 1715.402344 1243.105469 L 1644.328125 1264.539062 C 1644.328125 1264.539062 1643.804688 1287.109375 1643 1325.257812 " fill-opacity="1" fill-rule="nonzero"/><path fill="#af0b3a" d="M 2947.480469 871.53125 C 2947.480469 1137.53125 2947.480469 2149.175781 2947.480469 2376.632812 C 2949.148438 2376.457031 2950.484375 2376.238281 2951.441406 2375.957031 C 3005.621094 2360.101562 3453.667969 2083.890625 3462.921875 2046.894531 C 3472.167969 2009.886719 3462.921875 716.085938 3462.921875 716.085938 L 2947.480469 871.53125 " fill-opacity="1" fill-rule="nonzero"/><path fill="#cc234b" d="M 2118.800781 496.707031 C 2118.800781 496.707031 1606 1061.015625 1592.789062 1105.949219 C 1579.574219 1150.882812 1592.789062 1286.992188 1592.789062 1286.992188 C 1592.789062 1286.992188 2931.613281 1457.476562 2979.195312 1441.625 C 3026.777344 1425.769531 3515.789062 857.492188 3521.074219 791.414062 C 3525.628906 734.523438 3530.320312 591.863281 3513.148438 583.933594 C 3486.578125 571.675781 2167.707031 442.527344 2118.800781 496.707031 " fill-opacity="1" fill-rule="nonzero"/><path fill="#af0b3a" d="M 3521.074219 791.414062 C 3525.558594 735.328125 3530.191406 595.890625 3513.855469 584.363281 C 3398.273438 727.527344 3011.117188 1206.121094 2989.765625 1219.601562 C 2964.65625 1235.457031 1623.183594 1105.949219 1623.183594 1105.949219 C 1623.183594 1105.949219 2964.65625 1246.027344 2972.582031 1249.996094 C 2980.125 1253.769531 2979.300781 1424.894531 2979.207031 1441.625 C 3026.824219 1425.699219 3515.789062 857.492188 3521.074219 791.414062 " fill-opacity="1" fill-rule="nonzero"/><path fill="#8c0331" d="M 2965.726562 1445.859375 C 2834.160156 1445.859375 1923.375 1332.113281 1634.511719 1295.621094 C 1632.707031 1295.386719 1631.429688 1293.734375 1631.660156 1291.929688 C 1631.882812 1290.113281 1633.535156 1288.820312 1635.351562 1289.066406 C 2263.195312 1368.398438 2945.65625 1449.316406 2978.148438 1438.492188 C 2995.597656 1432.671875 3083.9375 1340.683594 3197.972656 1209.566406 C 3291.097656 1102.515625 3413.664062 954.835938 3478.359375 861.460938 C 3479.398438 859.957031 3481.457031 859.585938 3482.960938 860.621094 C 3484.460938 861.660156 3484.832031 863.71875 3483.796875 865.222656 C 3418.941406 958.828125 3296.195312 1106.71875 3202.96875 1213.910156 C 3110.214844 1320.53125 3003.003906 1437.164062 2980.242188 1444.753906 C 2978.007812 1445.5 2973.082031 1445.859375 2965.726562 1445.859375 " fill-opacity="1" fill-rule="nonzero"/><path fill="#d6295b" d="M 2499.4375 1153.527344 C 2499.4375 1153.527344 2952.769531 1201.09375 2977.878906 1189.207031 C 3002.992188 1177.308594 3336.035156 788.773438 3328.109375 772.917969 C 3324.078125 764.851562 3235.613281 865.628906 3144.605469 966.394531 C 3056.695312 1063.738281 2966.414062 1161.082031 2947.539062 1160.324219 C 2909.144531 1158.8125 2224.53125 1119.160156 2499.4375 1153.527344 " fill-opacity="1" fill-rule="nonzero"/><path fill="#d6295b" d="M 1986.640625 676.445312 C 1986.640625 676.445312 2108.230469 509.929688 2147.882812 504.644531 C 2187.523438 499.359375 2854.960938 529.757812 3025.460938 552.210938 C 3195.949219 574.691406 2209.992188 515.214844 2145.238281 533.714844 C 2109.066406 544.050781 1920.558594 771.589844 1932.445312 746.480469 C 1944.34375 721.382812 1986.640625 676.445312 1986.640625 676.445312 " fill-opacity="1" fill-rule="nonzero"/><path fill="#70032d" d="M 2213.949219 780.136719 C 2213.949219 780.136719 2934.1875 813.160156 2935.480469 823.730469 C 2936.792969 834.3125 2894.511719 872.648438 2894.511719 872.648438 C 2894.511719 872.648438 2163.726562 833.707031 2167.707031 825.78125 C 2171.691406 817.851562 2213.949219 780.136719 2213.949219 780.136719 " fill-opacity="1" fill-rule="nonzero"/><path fill="#ffffff" d="M 1967.105469 1759.765625 L 1971.398438 1743.339844 L 1976.078125 1724.992188 L 1980.386719 1706.996094 C 1986.113281 1684.308594 1991.167969 1666.273438 1995.546875 1652.875 C 1999.921875 1638.695312 2003.078125 1624.109375 2005.011719 1609.09375 C 2005.3125 1604.667969 2007.699219 1602.074219 2012.148438 1601.304688 C 2018.5625 1599.488281 2025.710938 1599.058594 2033.578125 1600.046875 C 2043.90625 1601.339844 2054.246094 1602.238281 2064.582031 1602.738281 L 2068.261719 1603.203125 C 2071.695312 1604.15625 2073.394531 1606.472656 2073.335938 1610.140625 C 2073.335938 1610.410156 2073.070312 1611.816406 2072.546875 1614.378906 C 2071.207031 1622.109375 2067.785156 1638.640625 2062.253906 1663.980469 L 2055.957031 1692.375 L 2054.371094 1699.671875 L 2052.800781 1706.578125 C 2051.472656 1714.039062 2050.425781 1718.636719 2049.65625 1720.382812 L 2046.921875 1731.082031 C 2045.628906 1735.65625 2044.464844 1739.324219 2043.453125 1742.09375 L 2035.722656 1767.15625 L 2028.726562 1792.3125 C 2022.53125 1812.3125 2017.128906 1828.996094 2012.519531 1842.359375 C 2010.972656 1847.421875 2007.734375 1849.902344 2002.808594 1849.820312 L 1981.003906 1850.636719 C 1971.15625 1850.730469 1963.519531 1850.03125 1958.128906 1848.578125 L 1945.214844 1846.957031 C 1943.25 1846.714844 1941.28125 1846.339844 1939.324219 1845.828125 L 1929.371094 1844.582031 C 1926.902344 1844.269531 1925.085938 1842.464844 1923.898438 1839.160156 C 1920.324219 1830.566406 1917.253906 1820.71875 1914.703125 1809.613281 C 1911.945312 1795.074219 1907.71875 1780.078125 1902.023438 1764.644531 L 1894.898438 1745.214844 C 1893.957031 1742.210938 1892.769531 1738.765625 1891.347656 1734.910156 L 1889.941406 1730 L 1888.519531 1725.878906 L 1874.675781 1684.308594 L 1871.125 1674.402344 C 1869.9375 1671.09375 1868.867188 1667.671875 1867.9375 1664.144531 C 1866.527344 1659.230469 1864.652344 1651.898438 1862.335938 1642.144531 L 1859.183594 1629.90625 L 1856.027344 1616.894531 L 1852.195312 1600.246094 C 1850.8125 1593.507812 1853.1875 1590.515625 1859.332031 1591.28125 L 1877.050781 1592.703125 L 1881.476562 1593.261719 C 1882.710938 1593.414062 1884.0625 1593.320312 1885.539062 1592.96875 C 1891.464844 1592.410156 1898.472656 1593.414062 1906.566406 1595.996094 L 1910.605469 1597.289062 L 1914.65625 1598.199219 C 1918.578125 1598.953125 1921.011719 1601.351562 1921.945312 1605.414062 L 1933.574219 1645.925781 L 1938.535156 1661.921875 L 1939.941406 1666.4375 L 1940.992188 1670.910156 C 1941.933594 1674.179688 1942.632812 1676.636719 1943.109375 1678.265625 C 1943.574219 1679.652344 1944.507812 1683.714844 1945.890625 1690.453125 L 1947.289062 1696.542969 L 1948.3125 1702.582031 L 1956.324219 1738.300781 L 1958.769531 1748.460938 C 1960.175781 1753.375 1961.234375 1756.796875 1961.945312 1758.71875 L 1962.65625 1761.175781 C 1963.132812 1762.023438 1963.984375 1762.792969 1965.207031 1763.46875 L 1967.105469 1759.765625 " fill-opacity="1" fill-rule="nonzero"/><path fill="#ffffff" d="M 2246.769531 1758.4375 L 2246.464844 1754.445312 C 2246.488281 1751.839844 2246.28125 1749.171875 2245.839844 1746.484375 L 2243.089844 1730.753906 C 2238.679688 1711.011719 2227.664062 1697.277344 2210.039062 1689.546875 C 2206.117188 1688.53125 2203.773438 1688.113281 2203.042969 1688.277344 C 2199.351562 1687.824219 2195.417969 1687.71875 2191.226562 1687.984375 L 2186.777344 1688.613281 L 2182.332031 1689.640625 C 2172.921875 1693.457031 2165.683594 1699.917969 2160.640625 1709.023438 C 2153.550781 1723.117188 2149.199219 1735.585938 2147.566406 1746.425781 C 2146.996094 1751.871094 2146.832031 1755.273438 2147.054688 1756.621094 C 2146.960938 1763.445312 2148.21875 1770.707031 2150.816406 1778.390625 C 2154.320312 1792.769531 2161.792969 1804.210938 2173.25 1812.746094 C 2183.496094 1820.078125 2192.179688 1823.535156 2199.339844 1823.105469 C 2208.210938 1822.640625 2214.507812 1821.054688 2218.246094 1818.367188 C 2228.175781 1812.253906 2235.8125 1803.351562 2241.144531 1791.652344 C 2244.441406 1784.175781 2246.304688 1774.421875 2246.722656 1762.375 L 2246.769531 1758.4375 M 2092.359375 1758.066406 C 2092.90625 1753.664062 2093.375 1747.285156 2093.734375 1738.90625 L 2094.1875 1733.050781 L 2094.257812 1727.925781 C 2094.304688 1724.261719 2094.46875 1721.640625 2094.734375 1720.105469 C 2096.902344 1705.121094 2100.429688 1691.105469 2105.285156 1678.03125 C 2110.125 1665.761719 2114.945312 1656.113281 2119.71875 1649.070312 C 2127.765625 1637.195312 2137.960938 1629.535156 2150.328125 1626.078125 C 2158.242188 1623.65625 2166.507812 1622.445312 2175.125 1622.46875 L 2179.1875 1622.585938 L 2183.996094 1622.796875 L 2192.832031 1624.296875 L 2199.839844 1625.171875 C 2201.320312 1625.613281 2202.785156 1625.925781 2204.265625 1626.113281 L 2207.582031 1626.53125 L 2212.738281 1627.566406 L 2218.257812 1629.441406 C 2228.050781 1633.296875 2237.351562 1637.882812 2246.140625 1643.191406 C 2257.863281 1650.429688 2268.332031 1659.628906 2277.539062 1670.769531 C 2281.40625 1675.203125 2285.980469 1683.144531 2291.242188 1694.574219 C 2296.492188 1706.542969 2301.089844 1721.976562 2305.015625 1740.871094 C 2307.53125 1754.597656 2308.355469 1766.796875 2307.472656 1777.460938 C 2307.179688 1780.324219 2306.96875 1786.34375 2306.84375 1795.527344 C 2307.027344 1800.019531 2306.0625 1807.53125 2303.957031 1818.042969 C 2301.335938 1828.761719 2296.027344 1839.53125 2287.992188 1850.355469 L 2286.109375 1853.289062 L 2284.980469 1854.722656 L 2283.476562 1856.503906 L 2275.234375 1864.945312 L 2272.613281 1867.375 L 2269.621094 1870.160156 C 2267.121094 1872.207031 2264.757812 1874.023438 2262.519531 1875.570312 L 2255.441406 1880.21875 L 2248.726562 1884.898438 C 2236.304688 1892.8125 2225.417969 1896.699219 2216.058594 1896.585938 L 2192.039062 1897.132812 C 2172.84375 1895.78125 2157.300781 1889.109375 2145.402344 1877.109375 L 2139.558594 1871.648438 L 2133.726562 1865.792969 C 2131.78125 1863.964844 2129.71875 1861.871094 2127.542969 1859.496094 L 2124.621094 1856.761719 L 2122.445312 1854.117188 C 2114.921875 1845.816406 2107.949219 1833.511719 2101.523438 1817.191406 C 2096.296875 1803.128906 2093.292969 1788.683594 2092.511719 1773.863281 C 2092.046875 1771.710938 2092.082031 1769.207031 2092.617188 1766.378906 L 2092.734375 1758.113281 L 2092.359375 1758.066406 " fill-opacity="1" fill-rule="nonzero"/><path fill="#ffffff" d="M 2445.21875 1806.515625 C 2445.011719 1822.535156 2444.988281 1832.90625 2445.160156 1837.667969 L 2444.976562 1851.847656 C 2444.90625 1856.304688 2445.082031 1861.195312 2445.511719 1866.503906 C 2446.605469 1876.375 2446.839844 1886.257812 2446.210938 1896.175781 C 2446.199219 1897.226562 2445.882812 1901.660156 2445.289062 1909.472656 C 2444.976562 1913.640625 2442.742188 1915.722656 2438.550781 1915.722656 L 2428.210938 1915.617188 L 2417.859375 1915.898438 C 2412.691406 1916.046875 2407.164062 1915.222656 2401.269531 1913.429688 L 2392.808594 1911.195312 L 2384.34375 1908.949219 C 2380.410156 1908.203125 2378.476562 1905.457031 2378.546875 1900.730469 C 2379.234375 1886.097656 2379.59375 1877.855469 2379.617188 1876.015625 C 2379.886719 1874.210938 2380.070312 1870.296875 2380.152344 1864.246094 L 2381.492188 1820.636719 L 2381.550781 1816.308594 L 2382.339844 1812.453125 C 2382.609375 1810.917969 2382.75 1809.484375 2382.773438 1808.167969 L 2382.820312 1805.027344 L 2382.609375 1792.769531 L 2382.050781 1780.476562 C 2382.109375 1775.492188 2382.28125 1772.351562 2382.539062 1771.070312 L 2382.773438 1754.527344 C 2382.796875 1752.699219 2382.679688 1743.609375 2382.410156 1727.273438 C 2382.433594 1725.4375 2382.316406 1724.363281 2382.085938 1724.074219 C 2381.375 1721.359375 2379.917969 1719.859375 2377.707031 1719.582031 L 2374.761719 1719.21875 L 2371.804688 1719.242188 C 2370.328125 1719.054688 2368.359375 1719.078125 2365.890625 1719.289062 C 2356.519531 1720.21875 2347.648438 1720.429688 2339.289062 1719.90625 L 2338.183594 1719.765625 L 2336.703125 1719.976562 C 2333.257812 1719.546875 2331.1875 1717.707031 2330.5 1714.46875 C 2328.824219 1710.582031 2328.019531 1706.144531 2328.089844 1701.152344 C 2328.125 1698.53125 2328.019531 1688.789062 2327.75 1671.921875 C 2327.320312 1667.136719 2326.644531 1662.585938 2325.726562 1658.253906 L 2325.738281 1657.871094 C 2325.492188 1657.578125 2325.375 1657.171875 2325.375 1656.636719 C 2324.222656 1650.453125 2326.855469 1647.496094 2333.257812 1647.765625 L 2354.65625 1649.652344 L 2364.25 1650.851562 L 2373.457031 1652.398438 C 2378.628906 1653.039062 2384.902344 1653.5625 2392.285156 1653.957031 C 2395.972656 1654.15625 2399.792969 1654.378906 2403.726562 1654.597656 C 2408.898438 1654.714844 2414.066406 1654.703125 2419.246094 1654.5625 C 2421.949219 1654.644531 2428.09375 1655.273438 2437.6875 1656.484375 L 2445.070312 1657.007812 L 2452.8125 1657.976562 L 2472.707031 1661.640625 C 2476.398438 1662.375 2480.078125 1662.828125 2483.777344 1663.027344 C 2488.433594 1663.609375 2490.867188 1666.414062 2491.042969 1671.433594 L 2491.125 1692.746094 L 2490.789062 1717.148438 L 2490.378906 1720.253906 C 2489.820312 1724.65625 2487.703125 1726.761719 2484.011719 1726.566406 C 2481.289062 1727.273438 2478.085938 1727.402344 2474.394531 1726.9375 L 2453.730469 1725.144531 L 2450.414062 1724.726562 C 2448.945312 1724.28125 2447.710938 1724.132812 2446.722656 1724.273438 C 2444.007812 1724.457031 2442.636719 1725.996094 2442.601562 1728.882812 L 2442.519531 1735.179688 C 2443.078125 1747.613281 2444.019531 1760.089844 2445.324219 1772.605469 C 2445.558594 1772.898438 2445.675781 1774.097656 2445.640625 1776.191406 L 2445.21875 1806.515625 " fill-opacity="1" fill-rule="nonzero"/><path fill="#ffffff" d="M 2650.203125 1729.589844 L 2650.167969 1731.941406 C 2649.875 1735.332031 2648.117188 1737.214844 2644.917969 1737.601562 C 2643.683594 1737.71875 2641.714844 1737.601562 2639.015625 1737.261719 C 2635.554688 1737.355469 2629.898438 1737.171875 2622.027344 1736.714844 L 2605.066406 1734.992188 L 2595.820312 1734.621094 L 2586.230469 1734.609375 C 2582.269531 1734.898438 2580.28125 1737.414062 2580.210938 1742.140625 C 2579.894531 1747.101562 2579.824219 1752.222656 2580 1757.496094 L 2579.90625 1763.792969 C 2579.882812 1765.632812 2580.09375 1767.890625 2580.558594 1770.582031 C 2580.757812 1773.757812 2582.339844 1775.667969 2585.273438 1776.296875 C 2586.507812 1776.714844 2587.613281 1776.855469 2588.605469 1776.714844 L 2609.246094 1779.289062 C 2617.605469 1780.335938 2623.019531 1781.152344 2625.472656 1781.722656 C 2635.300781 1783.480469 2644.753906 1785.445312 2653.835938 1787.621094 C 2658.257812 1788.449219 2660.667969 1791.511719 2661.097656 1796.820312 L 2662.890625 1827.808594 C 2663.3125 1832.59375 2663.519531 1835.515625 2663.507812 1836.5625 C 2663.460938 1840.242188 2661.820312 1842.265625 2658.621094 1842.664062 L 2653.449219 1842.800781 L 2648.628906 1843.382812 C 2644.4375 1843.652344 2641.121094 1843.5 2638.664062 1842.929688 L 2636.824219 1842.699219 L 2635.359375 1842.117188 L 2632.039062 1841.695312 C 2626.136719 1840.707031 2619.375 1840.253906 2611.738281 1840.347656 L 2601.398438 1840.242188 L 2591.421875 1840.566406 L 2582.175781 1840.589844 C 2579.207031 1841.277344 2577.71875 1842.800781 2577.683594 1845.164062 C 2577.066406 1853.5 2576.765625 1858.0625 2576.753906 1858.855469 C 2576.484375 1860.136719 2576.332031 1863.140625 2576.261719 1867.867188 C 2576.214844 1871.277344 2578.277344 1873.5 2582.445312 1874.546875 C 2589.570312 1875.96875 2594.984375 1876.386719 2598.6875 1875.792969 C 2603.378906 1875.328125 2611.246094 1875.78125 2622.308594 1877.167969 L 2639.269531 1879.285156 L 2647.382812 1880.695312 L 2655.871094 1881.753906 C 2658.316406 1882.066406 2659.796875 1882.382812 2660.285156 1882.695312 C 2663.230469 1883.859375 2664.800781 1886.027344 2665 1889.203125 L 2664.929688 1894.328125 L 2665.511719 1905.839844 L 2665.722656 1917.304688 C 2665.941406 1918.914062 2665.757812 1923.488281 2665.164062 1931.042969 L 2665.105469 1935.769531 C 2664.558594 1939.378906 2662.808594 1941.261719 2659.851562 1941.414062 C 2654.917969 1941.855469 2648.757812 1941.742188 2641.378906 1941.089844 L 2634.742188 1940.25 L 2627.734375 1939.773438 L 2615.542969 1939.425781 C 2610.117188 1939.539062 2601.757812 1938.890625 2590.453125 1937.480469 C 2574.238281 1934.140625 2559.476562 1933.347656 2546.15625 1935.09375 C 2538.019531 1935.910156 2531.242188 1935.59375 2525.851562 1934.140625 C 2524.386719 1933.417969 2522.664062 1933.207031 2520.683594 1933.488281 L 2515.515625 1933.230469 C 2510.589844 1932.882812 2508.296875 1930.226562 2508.609375 1925.269531 C 2508.925781 1919.785156 2509.613281 1914.882812 2510.660156 1910.542969 L 2511.113281 1877.074219 C 2511.578125 1861.613281 2512.371094 1848.4375 2513.511719 1837.527344 C 2514.152344 1826.308594 2515.050781 1815.121094 2516.191406 1803.945312 L 2520.148438 1757.902344 L 2522.289062 1736.074219 C 2522.929688 1725.121094 2523.28125 1717.9375 2523.328125 1714.515625 C 2523.886719 1709.847656 2524.328125 1704.785156 2524.652344 1699.300781 L 2526.320312 1684.914062 L 2527.574219 1674.425781 C 2528.148438 1668.441406 2531.136719 1665.667969 2536.5625 1666.078125 L 2542.082031 1666.765625 C 2544.0625 1666.753906 2548.242188 1667.148438 2554.632812 1667.941406 L 2560.90625 1668.730469 L 2567.171875 1669.90625 L 2578.242188 1670.5 C 2580.210938 1670.488281 2582.304688 1670.617188 2584.515625 1670.886719 L 2589.675781 1671.535156 C 2591.652344 1671.523438 2597.171875 1672.339844 2606.265625 1674.003906 C 2618.292969 1677.089844 2626.636719 1678.789062 2631.320312 1679.105469 C 2632.796875 1679.035156 2636.488281 1679.628906 2642.378906 1680.886719 C 2646.3125 1681.375 2648.617188 1683.632812 2649.304688 1687.660156 C 2649.746094 1690.347656 2649.96875 1692.351562 2649.957031 1693.667969 L 2649.816406 1703.898438 L 2649.386719 1708.578125 L 2650.203125 1729.589844 " fill-opacity="1" fill-rule="nonzero"/><path fill="#d8d8d8" d="M 1818.46875 1881.207031 C 1822.171875 1883.347656 1843.582031 1890.9375 1965.707031 1910.332031 C 2047.015625 1923.253906 2153.726562 1938.351562 2266.210938 1952.859375 C 2379.917969 1967.527344 2487.015625 1979.957031 2567.777344 1987.863281 C 2692.777344 2000.109375 2714.292969 1997.570312 2717.957031 1996.328125 C 2719.167969 1995.1875 2725.09375 1987.1875 2727.949219 1939.761719 C 2729.742188 1909.925781 2730.007812 1869.566406 2728.726562 1823.046875 C 2726.316406 1735.9375 2719.542969 1659.824219 2715.792969 1646.308594 C 2707.179688 1641.96875 2648.128906 1625.996094 2266.921875 1579.421875 C 2056.015625 1553.644531 1838.4375 1530.144531 1818.421875 1530.144531 L 1818.339844 1530.144531 C 1817.410156 1531.097656 1813.941406 1535.753906 1810.667969 1554.820312 C 1803.125 1598.800781 1802.671875 1681.140625 1804.765625 1743.539062 C 1807.433594 1822.941406 1813.742188 1873.140625 1818.46875 1881.207031 M 2701.367188 2010.597656 C 2681.320312 2010.597656 2643.34375 2008.503906 2569.675781 2001.332031 C 2487.886719 1993.371094 2378.859375 1980.726562 2262.671875 1965.722656 C 2147.671875 1950.878906 2039.355469 1935.5 1957.671875 1922.441406 C 1815.964844 1899.761719 1811.136719 1893.453125 1808.246094 1889.679688 C 1797.035156 1875 1792.054688 1775.363281 1790.878906 1718.800781 C 1790.109375 1682.363281 1788.851562 1560.933594 1804.394531 1527.78125 C 1807.652344 1520.816406 1811.960938 1517.175781 1817.1875 1516.953125 C 1834.964844 1516.21875 2072.195312 1542.214844 2278.703125 1567.546875 C 2402.050781 1582.679688 2506.839844 1596.566406 2581.757812 1607.707031 C 2722.953125 1628.71875 2725.410156 1634.703125 2727.585938 1639.988281 C 2733.328125 1653.921875 2739.902344 1748.378906 2741.964844 1823.535156 C 2746.585938 1993.160156 2730.4375 2003.929688 2725.140625 2007.457031 C 2723.28125 2008.699219 2720.425781 2010.597656 2701.367188 2010.597656 " fill-opacity="1" fill-rule="nonzero"/><path fill="#be1843" d="M 2307.808594 1768.8125 C 2307.808594 1760.335938 2306.878906 1751.023438 2305.015625 1740.871094 C 2301.089844 1721.976562 2296.492188 1706.542969 2291.242188 1694.574219 C 2285.980469 1683.144531 2281.40625 1675.203125 2277.539062 1670.769531 C 2268.332031 1659.628906 2257.863281 1650.429688 2246.140625 1643.191406 C 2244.777344 1642.363281 2243.40625 1641.5625 2242.019531 1640.769531 C 2238.550781 1624.960938 2238.550781 1622.257812 2238.550781 1622.257812 L 2226.429688 1574.507812 C 2239.925781 1576.136719 2253.429688 1577.765625 2266.921875 1579.421875 C 2267.597656 1579.5 2268.238281 1579.582031 2268.914062 1579.664062 C 2270.203125 1620.792969 2271.3125 1648.464844 2271.3125 1648.464844 C 2271.3125 1648.464844 2334.820312 1733.140625 2307.808594 1768.8125 " fill-opacity="1" fill-rule="nonzero"/><path fill="#d98ca2" d="M 2287.980469 1781.152344 C 2266.585938 1781.152344 2262.476562 1724.480469 2251.660156 1681.210938 C 2246.96875 1662.457031 2243.953125 1649.582031 2242.019531 1640.769531 C 2243.40625 1641.5625 2244.777344 1642.363281 2246.140625 1643.191406 C 2257.863281 1650.429688 2268.332031 1659.628906 2277.539062 1670.769531 C 2281.40625 1675.203125 2285.980469 1683.144531 2291.242188 1694.574219 C 2296.492188 1706.542969 2301.089844 1721.976562 2305.015625 1740.871094 C 2306.878906 1751.023438 2307.808594 1760.335938 2307.808594 1768.8125 C 2306.714844 1770.265625 2305.46875 1771.628906 2304.058594 1772.910156 C 2297.785156 1778.613281 2292.5 1781.140625 2287.980469 1781.152344 " fill-opacity="1" fill-rule="nonzero"/><path fill="#be1843" d="M 1721.328125 1653.632812 C 1717.578125 1653.632812 1714.179688 1653.050781 1711.234375 1651.734375 C 1681.757812 1638.640625 1721.058594 1599.339844 1721.058594 1599.339844 L 1783.484375 1597.042969 C 1783.484375 1597.042969 1801.085938 1446.875 1817.269531 1348.050781 C 1844.511719 1351.601562 1874.175781 1355.453125 1905.609375 1359.53125 C 1890 1404.476562 1866.933594 1467.898438 1848.109375 1519.128906 C 1832.578125 1517.722656 1822.136719 1516.941406 1818.050781 1516.941406 C 1817.722656 1516.941406 1817.433594 1516.941406 1817.1875 1516.953125 C 1811.960938 1517.175781 1807.652344 1520.816406 1804.394531 1527.78125 C 1796.535156 1544.53125 1792.972656 1583.832031 1791.472656 1623.308594 C 1770.714844 1636.949219 1741.246094 1653.632812 1721.328125 1653.632812 " fill-opacity="1" fill-rule="nonzero"/><path fill="#af0b3a" d="M 1905.609375 1359.53125 C 1874.175781 1355.453125 1844.511719 1351.601562 1817.269531 1348.050781 C 1818.945312 1337.796875 1820.613281 1328.085938 1822.230469 1319.167969 C 1851.882812 1322.859375 1883.140625 1326.734375 1915.691406 1330.765625 C 1915.109375 1331.917969 1914.644531 1333.011719 1914.296875 1334.058594 C 1911.792969 1341.554688 1908.859375 1350.136719 1905.609375 1359.53125 " fill-opacity="1" fill-rule="nonzero"/><path fill="#be1843" d="M 2268.492188 1566.300781 C 2253.417969 1564.460938 2238.210938 1562.609375 2222.949219 1560.78125 L 2180.839844 1394.941406 C 2208.699219 1398.503906 2236.828125 1402.078125 2265.035156 1405.664062 C 2265.605469 1461.425781 2267.109375 1520.433594 2268.492188 1566.300781 " fill-opacity="1" fill-rule="nonzero"/><path fill="#af0b3a" d="M 2265.035156 1405.664062 C 2236.828125 1402.078125 2208.699219 1398.503906 2180.839844 1394.941406 L 2172.527344 1362.160156 C 2203.125 1365.851562 2233.988281 1369.5625 2264.816406 1373.242188 C 2264.839844 1383.847656 2264.917969 1394.675781 2265.035156 1405.664062 " fill-opacity="1" fill-rule="nonzero"/><path fill="#be1843" d="M 2264.792969 1366.605469 C 2233.929688 1362.917969 2202.578125 1359.15625 2170.78125 1355.316406 L 2130.464844 1196.507812 L 2110.8125 1180.125 C 2110.8125 1180.125 1952.550781 1279.03125 1919.546875 1324.605469 C 1887.601562 1320.648438 1855.5625 1316.667969 1823.441406 1312.671875 C 1828.027344 1288.285156 1832.289062 1270.730469 1835.6875 1265.28125 C 1848.085938 1245.445312 1928.007812 1174.980469 1966.148438 1141.875 C 2092.347656 1155.121094 2239.144531 1170.570312 2380.980469 1185.585938 L 2317.15625 1183.398438 C 2317.15625 1183.398438 2317.15625 1229.253906 2274.582031 1229.253906 C 2266.957031 1229.253906 2264.6875 1290.742188 2264.792969 1366.605469 M 2491.636719 1185.902344 C 2318.402344 1170.90625 2128.007812 1153.480469 1969.769531 1138.742188 C 1979.957031 1129.917969 1986.359375 1124.445312 1986.359375 1124.445312 L 2218.898438 1098.253906 C 2218.898438 1098.253906 2385.113281 1104.65625 2458.75 1139.605469 C 2424.777344 1140.046875 2422.644531 1143.144531 2477.386719 1150.652344 C 2490.238281 1160.5 2496.210938 1172.152344 2491.636719 1185.902344 " fill-opacity="1" fill-rule="nonzero"/><path fill="#af0b3a" d="M 2490.296875 1189.3125 L 2380.980469 1185.585938 C 2239.144531 1170.570312 2092.347656 1155.121094 1966.148438 1141.875 C 1967.40625 1140.792969 1968.605469 1139.742188 1969.769531 1138.742188 C 2128.007812 1153.480469 2318.402344 1170.90625 2491.636719 1185.902344 C 2491.253906 1187.03125 2490.808594 1188.160156 2490.296875 1189.3125 " fill-opacity="1" fill-rule="nonzero"/><path fill="#9c0735" d="M 2264.816406 1373.242188 C 2233.988281 1369.5625 2203.125 1365.851562 2172.527344 1362.160156 L 2170.78125 1355.316406 C 2202.578125 1359.15625 2233.929688 1362.917969 2264.792969 1366.605469 C 2264.792969 1368.808594 2264.804688 1371.019531 2264.816406 1373.242188 M 1915.691406 1330.765625 C 1883.140625 1326.734375 1851.882812 1322.859375 1822.230469 1319.167969 C 1822.636719 1316.945312 1823.03125 1314.78125 1823.441406 1312.671875 C 1855.5625 1316.667969 1887.601562 1320.648438 1919.546875 1324.605469 C 1917.960938 1326.78125 1916.671875 1328.84375 1915.691406 1330.765625 " fill-opacity="1" fill-rule="nonzero"/><path fill="#c41b4b" d="M 2477.386719 1150.652344 C 2422.644531 1143.144531 2424.777344 1140.046875 2458.75 1139.605469 C 2465.917969 1143.015625 2472.21875 1146.683594 2477.386719 1150.652344 " fill-opacity="1" fill-rule="nonzero"/><path fill="#be1843" d="M 1805.09375 1613.984375 C 1806.1875 1591.144531 1807.980469 1570.539062 1810.667969 1554.820312 C 1813.941406 1535.753906 1817.410156 1531.097656 1818.339844 1530.144531 L 1818.421875 1530.144531 C 1821.71875 1530.144531 1830.332031 1530.78125 1843.394531 1531.957031 C 1827.738281 1574.519531 1816.035156 1605.878906 1816.035156 1605.878906 C 1816.035156 1605.878906 1811.855469 1609.152344 1805.09375 1613.984375 " fill-opacity="1" fill-rule="nonzero"/><path fill="#c5788e" d="M 1791.472656 1623.308594 C 1792.972656 1583.832031 1796.535156 1544.53125 1804.394531 1527.78125 C 1807.652344 1520.816406 1811.960938 1517.175781 1817.1875 1516.953125 C 1817.433594 1516.941406 1817.722656 1516.941406 1818.050781 1516.941406 C 1822.136719 1516.941406 1832.578125 1517.722656 1848.109375 1519.128906 C 1846.503906 1523.507812 1844.933594 1527.78125 1843.394531 1531.957031 C 1830.332031 1530.78125 1821.71875 1530.144531 1818.421875 1530.144531 L 1818.339844 1530.144531 C 1817.410156 1531.097656 1813.941406 1535.753906 1810.667969 1554.820312 C 1807.980469 1570.539062 1806.1875 1591.144531 1805.09375 1613.984375 C 1801.285156 1616.695312 1796.640625 1619.90625 1791.472656 1623.308594 M 2268.914062 1579.664062 C 2268.238281 1579.582031 2267.597656 1579.5 2266.921875 1579.421875 C 2253.429688 1577.765625 2239.925781 1576.136719 2226.429688 1574.507812 L 2222.949219 1560.78125 C 2238.210938 1562.609375 2253.417969 1564.460938 2268.492188 1566.300781 C 2268.632812 1570.886719 2268.773438 1575.355469 2268.914062 1579.664062 " fill-opacity="1" fill-rule="nonzero"/><path fill="#085d77" d="M 1947.078125 591.269531 C 1947.078125 591.269531 1962.132812 593.980469 1964.425781 605.121094 C 1966.695312 616.25 1960.628906 629.089844 1943.367188 629.730469 L 1947.078125 591.269531 " fill-opacity="1" fill-rule="nonzero"/><path fill="#479bdb" d="M 1703.003906 589.101562 C 1703.003906 589.101562 1697.71875 648.195312 1717.90625 675.957031 C 1738.105469 703.710938 1759.722656 681.882812 1792.484375 657.761719 C 1825.246094 633.640625 1939.511719 639.230469 1939.511719 639.230469 C 1939.511719 639.230469 1949.5 631.371094 1951.074219 610.753906 C 1952.644531 590.128906 1938.664062 578.496094 1938.664062 578.496094 C 1938.664062 578.496094 1840.53125 566.707031 1790.714844 521.816406 C 1745.554688 481.109375 1729.347656 505.402344 1724.914062 512.109375 C 1717.917969 522.714844 1705.074219 556.777344 1703.003906 589.101562 " fill-opacity="1" fill-rule="nonzero"/><path fill="#333333" d="M 1777.105469 597.730469 C 1773.554688 646.25 1754.996094 684.433594 1735.648438 683.011719 C 1716.296875 681.605469 1703.480469 641.128906 1707.03125 592.617188 C 1710.582031 544.097656 1729.140625 505.925781 1748.488281 507.335938 C 1767.839844 508.753906 1780.65625 549.21875 1777.105469 597.730469 " fill-opacity="1" fill-rule="nonzero"/><path fill="#ed9300" d="M 1746.125 566.601562 C 1741.898438 566.625 1735.242188 577.160156 1734.226562 591.082031 C 1733.203125 605.015625 1737.113281 614.015625 1742.433594 617.042969 L 1772.542969 628.765625 C 1774.71875 619.171875 1776.300781 608.730469 1777.105469 597.730469 C 1778.082031 584.273438 1777.816406 571.421875 1776.476562 559.847656 L 1746.125 566.601562 " fill-opacity="1" fill-rule="nonzero"/><path fill="#333333" d="M 1879.742188 633.015625 C 1879.742188 633.015625 1878.25 652.523438 1876.703125 666.984375 C 1875.050781 682.277344 1873.476562 692.59375 1878.753906 693.234375 C 1888.996094 694.457031 1894.75 689.949219 1902.792969 631.628906 L 1879.742188 633.015625 " fill-opacity="1" fill-rule="nonzero"/><path fill="#2f8ac2" d="M 1784.765625 624.761719 C 1796.292969 566.507812 1777.945312 522.933594 1777.734375 522.433594 C 1777.105469 520.992188 1775.441406 520.328125 1773.996094 520.957031 C 1772.554688 521.585938 1771.890625 523.25 1772.519531 524.691406 C 1772.761719 525.261719 1796.570312 581.746094 1771.402344 651.871094 C 1771.332031 652.058594 1761.9375 678.53125 1747.882812 687.285156 C 1760.550781 682.964844 1774.917969 670.695312 1792.484375 657.761719 C 1825.246094 633.640625 1939.511719 639.230469 1939.511719 639.230469 C 1939.511719 639.230469 1946.753906 633.492188 1949.875 619.042969 C 1939.6875 618.125 1837.691406 609.464844 1784.765625 624.761719 " fill-opacity="1" fill-rule="nonzero"/><path fill="#085d77" d="M 1917.101562 638.695312 C 1919.253906 638.707031 1921.292969 638.730469 1923.203125 638.765625 C 1934.960938 608.996094 1928.789062 586.601562 1924.320312 576.261719 C 1922.1875 575.890625 1919.871094 575.460938 1917.378906 574.980469 C 1920.863281 581.570312 1931.011719 605.46875 1917.101562 638.695312 " fill-opacity="1" fill-rule="nonzero"/><path fill="#d37301" d="M 1772.542969 628.765625 C 1774.660156 619.441406 1776.195312 609.300781 1777.023438 598.660156 L 1757.664062 601.09375 C 1759.234375 580.476562 1751.957031 573.257812 1751.957031 573.257812 C 1751.957031 573.257812 1758.164062 589.394531 1752.667969 605.027344 C 1750.292969 611.78125 1747.21875 614.226562 1745.242188 615.109375 C 1744.007812 615.667969 1772.542969 628.765625 1772.542969 628.765625 " fill-opacity="1" fill-rule="nonzero"/><path fill="#f27461" d="M 1890 661.046875 C 1887.402344 664.980469 1895.285156 670.183594 1895.285156 670.183594 L 1893.921875 676.34375 C 1890.617188 689.707031 1882.28125 689.894531 1878.34375 687.296875 C 1874.398438 684.699219 1875.945312 680.359375 1875.945312 680.359375 C 1875.945312 680.359375 1887.484375 682.011719 1886.820312 678.742188 C 1886.621094 677.808594 1885.304688 676.84375 1883.492188 676.015625 C 1886.539062 675.375 1889.371094 674.597656 1888.742188 671.535156 C 1888.542969 670.554688 1887.390625 669.972656 1886.027344 669.613281 C 1886.449219 669.265625 1886.832031 668.890625 1887.121094 668.425781 C 1887.589844 667.703125 1887.832031 666.761719 1887.4375 666.003906 C 1887.261719 665.667969 1886.972656 665.398438 1886.667969 665.179688 C 1886.355469 664.957031 1886.015625 664.78125 1885.679688 664.621094 L 1886.238281 663.957031 C 1886.691406 663.117188 1886.667969 661.988281 1886.015625 661.300781 C 1885.75 661.035156 1885.410156 660.847656 1885.0625 660.683594 C 1882.6875 659.578125 1879.984375 659.425781 1877.367188 659.4375 C 1876.238281 659.449219 1875.097656 659.484375 1873.992188 659.753906 C 1873.292969 659.929688 1872.476562 660.277344 1872.140625 660.976562 C 1871.800781 661.699219 1872.289062 662.640625 1872.429688 663.386719 L 1872.417969 663.734375 L 1872.175781 663.980469 C 1871.859375 664.164062 1871.5 664.246094 1871.160156 664.386719 C 1870.835938 664.527344 1870.496094 664.746094 1870.394531 665.097656 C 1870.300781 665.386719 1870.382812 665.703125 1870.472656 665.992188 C 1870.683594 666.621094 1870.964844 667.226562 1871.300781 667.796875 L 1871.5 668.449219 L 1871.289062 668.777344 C 1870.742188 669.300781 1869.859375 669.347656 1869.367188 669.917969 C 1869.054688 670.300781 1868.972656 670.847656 1869.066406 671.335938 C 1869.160156 671.8125 1869.378906 672.394531 1869.648438 672.804688 C 1869.914062 673.210938 1870.277344 673.433594 1870.300781 673.96875 L 1870.207031 674.527344 C 1870.007812 674.933594 1869.378906 675.144531 1869.113281 675.550781 C 1866.515625 679.496094 1873.140625 695.1875 1873.140625 695.1875 C 1873.140625 695.1875 1869.949219 712.882812 1884.96875 702.988281 C 1898.90625 693.792969 1901.839844 668.84375 1901.164062 665.574219 C 1900.488281 662.304688 1892.605469 657.097656 1890 661.046875 " fill-opacity="1" fill-rule="nonzero"/><path fill="#f27461" d="M 2322.488281 1134.960938 C 2322.488281 1134.960938 2323.699219 1155.003906 2313.128906 1160.082031 C 2302.882812 1164.992188 2307.0625 1172.921875 2308.203125 1178.484375 C 2308.695312 1180.882812 2307.609375 1183.316406 2305.027344 1181.523438 C 2300.566406 1178.460938 2299.296875 1172.023438 2297.367188 1167.367188 L 2297.15625 1167.160156 L 2297.027344 1167.519531 C 2297.867188 1172.035156 2299.949219 1176.238281 2300.636719 1180.730469 C 2300.976562 1182.863281 2301.953125 1188.472656 2298.785156 1189.113281 C 2295.679688 1189.753906 2293.640625 1184.214844 2292.800781 1182.140625 C 2291.941406 1180.035156 2291.125 1177.820312 2290.566406 1175.609375 C 2289.890625 1172.898438 2289.660156 1170.046875 2288.984375 1167.296875 C 2288.203125 1168.414062 2288.4375 1169.90625 2288.679688 1171.234375 C 2289.484375 1175.46875 2290.472656 1179.589844 2290.414062 1183.921875 C 2290.378906 1185.992188 2290.414062 1190.835938 2287.65625 1191.394531 C 2284.257812 1192.09375 2282.789062 1185.703125 2282.21875 1183.527344 C 2280.800781 1178.101562 2280.671875 1172.640625 2279.867188 1167.125 C 2279.109375 1168.101562 2279.03125 1169.417969 2279.019531 1170.652344 C 2279.019531 1173.492188 2279.703125 1176.519531 2279.449219 1179.300781 C 2279.34375 1180.453125 2279.191406 1184.433594 2277.585938 1184.761719 C 2273.441406 1185.609375 2271.425781 1175.75 2270.878906 1173.257812 C 2269.390625 1166.367188 2269.144531 1159.871094 2274.371094 1154.480469 L 2274.675781 1154.179688 C 2276.667969 1152.210938 2278.984375 1150.617188 2281.3125 1149.066406 C 2284 1147.277344 2280.960938 1147.183594 2279.273438 1146.984375 C 2276.339844 1146.636719 2272.148438 1145.585938 2274.59375 1141.875 C 2279.019531 1135.167969 2302.429688 1136.167969 2306.855469 1129.453125 C 2311.277344 1122.746094 2322.488281 1134.960938 2322.488281 1134.960938 " fill-opacity="1" fill-rule="nonzero"/><path fill="#333333" d="M 2255.082031 1634.566406 C 2255.082031 1634.566406 2246.605469 1636.300781 2246.675781 1651 C 2246.746094 1665.703125 2249.9375 1724.65625 2275.863281 1721.558594 C 2310.347656 1717.4375 2289.820312 1671.304688 2272.101562 1645.796875 C 2259.574219 1627.753906 2255.082031 1634.566406 2255.082031 1634.566406 " fill-opacity="1" fill-rule="nonzero"/><path fill="#1a1a1a" d="M 2279.878906 1658.125 C 2284.652344 1671.769531 2292.535156 1696.761719 2272.894531 1692.734375 C 2251.378906 1688.3125 2253.417969 1640.792969 2253.417969 1640.792969 L 2252.402344 1635.878906 C 2249.9375 1637.683594 2246.628906 1641.804688 2246.675781 1651 C 2246.746094 1665.703125 2249.9375 1724.65625 2275.863281 1721.558594 C 2305.292969 1718.03125 2294.640625 1683.910156 2279.878906 1658.125 " fill-opacity="1" fill-rule="nonzero"/><path fill="#e55857" d="M 1822.542969 1569.921875 L 1820.949219 1474.476562 L 1799.703125 1475.535156 L 1809.960938 1567.171875 L 1822.542969 1569.921875 " fill-opacity="1" fill-rule="nonzero"/><path fill="#1a1a1a" d="M 1823.019531 1579.023438 C 1826.757812 1579.1875 1829.585938 1575.566406 1828.386719 1572.015625 C 1826.59375 1566.71875 1821.648438 1559.617188 1808.421875 1554.601562 C 1784.695312 1545.613281 1744.660156 1536.230469 1738.058594 1543.613281 C 1734.179688 1547.929688 1731.398438 1555.265625 1729.558594 1561.726562 C 1727.671875 1568.3125 1732.433594 1574.9375 1739.292969 1575.242188 L 1823.019531 1579.023438 " fill-opacity="1" fill-rule="nonzero"/><path fill="#333333" d="M 1741.363281 1560.792969 C 1732.898438 1558.246094 1733.503906 1551.855469 1735.449219 1547.207031 C 1736.265625 1545.871094 1737.125 1544.648438 1738.058594 1543.613281 C 1744.566406 1536.335938 1783.519531 1545.347656 1807.363281 1554.207031 C 1835.363281 1570.445312 1754.707031 1564.808594 1741.363281 1560.792969 " fill-opacity="1" fill-rule="nonzero"/><path fill="#f27461" d="M 2264.617188 1640.570312 L 2249.492188 1556.230469 L 2228.6875 1560.679688 L 2251.808594 1643.492188 C 2252.742188 1646.859375 2256.152344 1648.90625 2259.550781 1648.148438 C 2263 1647.394531 2265.234375 1644.039062 2264.617188 1640.570312 " fill-opacity="1" fill-rule="nonzero"/><path fill="#562f5e" d="M 2249.855469 1070.570312 C 2253.019531 1081.363281 2253.160156 1092.804688 2250.261719 1103.667969 C 2239.226562 1144.945312 2211.4375 1250.03125 2210.796875 1263.816406 C 2209.992188 1281.03125 2267.003906 1615.261719 2267.003906 1615.261719 L 2241.902344 1620.210938 L 2104.746094 1162.140625 C 2104.746094 1162.140625 1854 1206.25 1846.96875 1217.636719 C 1839.925781 1229.019531 1826.480469 1534.660156 1826.480469 1534.660156 L 1802.355469 1535.484375 C 1802.355469 1535.484375 1763.554688 1179.453125 1775.929688 1163.886719 C 1788.292969 1148.324219 2080.460938 1053.109375 2080.460938 1053.109375 L 2235.164062 1020.46875 L 2249.855469 1070.570312 " fill-opacity="1" fill-rule="nonzero"/><path fill="#481f52" d="M 2249.855469 1070.570312 L 2235.164062 1020.46875 L 2080.460938 1053.109375 C 2080.460938 1053.109375 1788.292969 1148.324219 1775.929688 1163.886719 C 1763.554688 1179.453125 1802.355469 1535.484375 1802.355469 1535.484375 L 1826.480469 1534.660156 C 1826.480469 1534.660156 1839.925781 1229.019531 1846.96875 1217.636719 C 1853.605469 1206.890625 2077.015625 1167.054688 2102.371094 1162.558594 L 2094.828125 1125.773438 C 2094.828125 1125.773438 2094.6875 1096.355469 2141.046875 1092.746094 C 2187.40625 1089.128906 2210.945312 1160.835938 2197.3125 1266.667969 L 2259.027344 1616.835938 L 2267.003906 1615.261719 C 2267.003906 1615.261719 2209.992188 1281.03125 2210.796875 1263.816406 C 2211.4375 1250.03125 2239.226562 1144.945312 2250.261719 1103.667969 C 2253.160156 1092.804688 2253.019531 1081.363281 2249.855469 1070.570312 " fill-opacity="1" fill-rule="nonzero"/><path fill="#371443" d="M 2093.640625 1115.308594 C 2093.28125 1113.75 2091.730469 1112.863281 2090.171875 1113.15625 C 2088.625 1113.527344 2087.65625 1115.074219 2088.03125 1116.625 L 2098.960938 1163.164062 C 2102.351562 1162.558594 2104.316406 1162.210938 2104.65625 1162.164062 L 2093.640625 1115.308594 " fill-opacity="1" fill-rule="nonzero"/><path fill="#f0bd78" d="M 2109.253906 639.207031 C 2109.253906 639.207031 2072.953125 644.421875 2030.878906 653.851562 C 2013.953125 657.644531 1998.457031 665.785156 1985.160156 677.179688 C 1955.414062 702.675781 1929.640625 789.15625 1912.375 789.796875 C 1879.066406 791.03125 1889.441406 725.257812 1896.320312 697.378906 L 1869.566406 694.164062 C 1841.777344 744.570312 1802.285156 940.933594 1938.546875 903.335938 C 1955.566406 898.652344 1970.234375 888.140625 1995.21875 868.527344 C 1995.21875 868.527344 2029.273438 1026.90625 2046.152344 1059.792969 C 2046.152344 1059.792969 2165.296875 1083.191406 2255.371094 1047.941406 C 2255.371094 1047.941406 2263.628906 946.90625 2274.476562 886.675781 L 2300.078125 917.210938 C 2314.875 936.035156 2323.246094 959.128906 2323.757812 983.066406 C 2324.539062 1019.675781 2321.230469 1076.34375 2299.484375 1128.417969 C 2299.484375 1128.417969 2306.355469 1141.164062 2327.554688 1145.515625 C 2327.554688 1145.515625 2443.648438 985.183594 2421.074219 894.335938 C 2398.5 803.476562 2328.636719 637.332031 2109.253906 639.207031 " fill-opacity="1" fill-rule="nonzero"/><path fill="#e9ad68" d="M 2212.914062 797.816406 C 2266.210938 958.011719 2162.0625 1031.539062 2105.25 1037.382812 C 2057.480469 1042.296875 2030.109375 998.199219 2022.613281 984.054688 C 2031.320312 1017.800781 2040.078125 1047.964844 2046.152344 1059.792969 C 2046.152344 1059.792969 2165.296875 1083.191406 2255.371094 1047.941406 C 2255.371094 1047.941406 2263.359375 950.28125 2273.941406 889.761719 C 2246.210938 856.128906 2212.914062 797.816406 2212.914062 797.816406 " fill-opacity="1" fill-rule="nonzero"/><path fill="#cf873f" d="M 2214.8125 793.976562 C 2214.230469 792.519531 2212.589844 791.824219 2211.109375 792.417969 C 2209.65625 793.011719 2208.96875 794.664062 2209.5625 796.117188 C 2226.617188 837.921875 2269.589844 889.480469 2273.242188 893.835938 C 2273.652344 891.390625 2274.058594 889.003906 2274.476562 886.675781 C 2274.476562 886.675781 2231.925781 835.875 2214.8125 793.976562 " fill-opacity="1" fill-rule="nonzero"/><path fill="#e9ad68" d="M 2005.742188 663.164062 C 1998.433594 667.019531 1991.539062 671.710938 1985.160156 677.179688 C 1955.414062 702.675781 1929.640625 789.15625 1912.375 789.796875 C 1879.066406 791.03125 1889.441406 725.257812 1896.320312 697.378906 L 1869.566406 694.164062 C 1841.777344 744.570312 1802.285156 940.933594 1938.546875 903.335938 C 1955.496094 898.664062 1970.128906 888.222656 1994.929688 868.746094 C 1983.589844 809.691406 1967.59375 695.46875 2005.742188 663.164062 " fill-opacity="1" fill-rule="nonzero"/><path fill="#cf873f" d="M 1983.832031 712.335938 C 1982.296875 712.023438 1980.78125 713 1980.46875 714.535156 C 1980.003906 716.738281 1969.457031 769.167969 1990.238281 872.414062 C 1991.855469 871.15625 1993.507812 869.867188 1995.21875 868.527344 L 1995.230469 868.574219 L 1995.265625 868.539062 C 1975.507812 768.402344 1985.917969 716.238281 1986.023438 715.699219 C 1986.347656 714.175781 1985.359375 712.664062 1983.832031 712.335938 " fill-opacity="1" fill-rule="nonzero"/><path fill="#cf873f" d="M 2341.898438 1127.578125 L 2341.164062 1127.636719 C 2326.679688 1126.820312 2310.964844 1115.144531 2304.875 1110.175781 C 2303.664062 1109.171875 2303.488281 1107.394531 2304.480469 1106.171875 C 2305.480469 1104.960938 2307.261719 1104.785156 2308.472656 1105.773438 C 2312.894531 1109.382812 2328.308594 1121.222656 2341.488281 1121.96875 C 2343.050781 1122.050781 2344.25 1123.398438 2344.167969 1124.960938 C 2344.085938 1126.273438 2343.132812 1127.335938 2341.898438 1127.578125 " fill-opacity="1" fill-rule="nonzero"/><path fill="#cf873f" d="M 1891.617188 726.433594 C 1891.058594 726.539062 1890.464844 726.492188 1889.90625 726.25 C 1875.804688 720.03125 1859.671875 721.195312 1859.507812 721.207031 C 1857.949219 721.324219 1856.574219 720.160156 1856.457031 718.589844 C 1856.339844 717.027344 1857.492188 715.65625 1859.078125 715.539062 C 1859.789062 715.492188 1876.808594 714.269531 1892.199219 721.042969 C 1893.628906 721.671875 1894.28125 723.347656 1893.640625 724.792969 C 1893.257812 725.667969 1892.488281 726.25 1891.617188 726.433594 " fill-opacity="1" fill-rule="nonzero"/><path fill="#d8d8d8" d="M 1688.953125 519.757812 C 1688.953125 519.757812 1617.726562 456.90625 1609.015625 471.828125 C 1601.855469 484.097656 1688.953125 519.757812 1688.953125 519.757812 " fill-opacity="1" fill-rule="nonzero"/><path fill="#d8d8d8" d="M 1687.195312 681.511719 C 1687.195312 681.511719 1625.722656 697.015625 1632.035156 709.089844 C 1637.226562 719.007812 1687.195312 681.511719 1687.195312 681.511719 " fill-opacity="1" fill-rule="nonzero"/><path fill="#d8d8d8" d="M 1624.921875 590.242188 C 1624.921875 590.242188 1486.273438 558.464844 1487.578125 569.71875 C 1489.207031 583.828125 1624.921875 590.242188 1624.921875 590.242188 " fill-opacity="1" fill-rule="nonzero"/><path fill="#d8d8d8" d="M 1677.167969 625.492188 C 1677.167969 625.492188 1536.089844 629.324219 1539.839844 646.191406 C 1541.761719 654.828125 1677.167969 625.492188 1677.167969 625.492188 " fill-opacity="1" fill-rule="nonzero"/><path fill="#efefef" d="M 2179.628906 644.96875 C 2158.070312 641.046875 2134.679688 638.984375 2109.253906 639.207031 C 2109.253906 639.207031 2085.164062 642.675781 2053.5 649.042969 C 2050.496094 673.128906 2056.398438 726.0625 2089.113281 761.4375 C 2089.113281 761.4375 2168.746094 699.21875 2179.628906 644.96875 " fill-opacity="1" fill-rule="nonzero"/><path fill="#bababa" d="M 2079.820312 624.085938 C 2079.820312 624.085938 2113.6875 610.859375 2150.722656 621.289062 L 2143.761719 648.230469 L 2079.519531 661.195312 L 2079.820312 624.085938 " fill-opacity="1" fill-rule="nonzero"/><path fill="#562f5e" d="M 2049.667969 537.324219 C 2049.667969 537.324219 2015.824219 562.609375 2005.3125 544.539062 C 1994.800781 526.460938 2035.246094 498.035156 2035.246094 498.035156 C 2035.246094 498.035156 1997.046875 503.144531 1999.269531 483.015625 C 2001.496094 462.878906 2036.570312 446.101562 2081.054688 454.808594 C 2081.054688 454.808594 2064.199219 433.519531 2075.886719 429.339844 C 2087.5625 425.148438 2138.347656 446.613281 2149.78125 492.261719 C 2149.78125 492.261719 2151.96875 478.488281 2158.324219 479.582031 C 2164.679688 480.675781 2180.410156 514.679688 2144.144531 557.960938 C 2144.144531 557.960938 2118.613281 574.808594 2100.660156 560.929688 C 2082.699219 547.054688 2049.667969 537.324219 2049.667969 537.324219 " fill-opacity="1" fill-rule="nonzero"/><path fill="#481f52" d="M 2100.660156 560.929688 C 2118.613281 574.808594 2144.144531 557.960938 2144.144531 557.960938 C 2153.738281 546.519531 2159.6875 535.726562 2163.144531 526.007812 C 2141.398438 562.363281 2129.59375 500.640625 2129.59375 500.640625 C 2129.59375 500.640625 2128.449219 515.484375 2113.628906 512.222656 C 2098.796875 508.964844 2104.257812 479.316406 2104.257812 479.316406 C 2104.257812 479.316406 2088.214844 504.667969 2046.792969 518.242188 C 2013.566406 529.128906 2020.308594 513.46875 2024.265625 506.847656 C 2013.148438 516.695312 1998.492188 532.792969 2005.3125 544.539062 C 2015.824219 562.609375 2049.667969 537.324219 2049.667969 537.324219 C 2049.667969 537.324219 2082.699219 547.054688 2100.660156 560.929688 " fill-opacity="1" fill-rule="nonzero"/><path fill="#f27461" d="M 2127.054688 581.210938 L 2141.328125 664.515625 L 2101.964844 684.78125 L 2081 672.140625 L 2088.738281 609.636719 L 2127.054688 581.210938 " fill-opacity="1" fill-rule="nonzero"/><path fill="#e55857" d="M 2084.757812 641.769531 C 2094.328125 638.871094 2127.425781 626.308594 2124.890625 591.792969 L 2088.683594 610.148438 L 2084.757812 641.769531 " fill-opacity="1" fill-rule="nonzero"/><path fill="#f27461" d="M 2048.855469 530.980469 C 2048.855469 530.980469 2034.628906 617.832031 2077.039062 618.054688 C 2119.441406 618.277344 2128.066406 590.757812 2128.066406 590.757812 C 2128.066406 590.757812 2147.125 597.207031 2152.503906 582.398438 C 2157.871094 567.578125 2153.75 545.296875 2127.183594 555.761719 C 2127.183594 555.761719 2094.5625 507.882812 2048.855469 530.980469 " fill-opacity="1" fill-rule="nonzero"/><path fill="#371443" d="M 2126.226562 556.472656 C 2125.460938 556.472656 2124.703125 556.136719 2124.179688 555.496094 C 2107.425781 534.761719 2088.542969 525.390625 2068.0625 527.613281 C 2052.695312 529.289062 2042.054688 537.207031 2041.949219 537.289062 C 2040.785156 538.171875 2039.121094 537.941406 2038.238281 536.777344 C 2037.363281 535.613281 2037.585938 533.945312 2038.75 533.0625 C 2039.214844 532.703125 2050.484375 524.273438 2067.238281 522.375 C 2095.246094 519.210938 2115.902344 536.824219 2128.300781 552.152344 C 2129.230469 553.292969 2129.042969 554.960938 2127.914062 555.878906 C 2127.414062 556.285156 2126.820312 556.472656 2126.226562 556.472656 " fill-opacity="1" fill-rule="nonzero"/><path fill="#ffffff" d="M 2071.417969 592.515625 C 2071.417969 592.515625 2086.902344 591.523438 2108.253906 576.960938 C 2108.253906 576.960938 2100.695312 607.148438 2085.992188 606.226562 C 2078.507812 605.761719 2071.417969 592.515625 2071.417969 592.515625 " fill-opacity="1" fill-rule="nonzero"/><path fill="#d6d6d6" d="M 2150.699219 624.667969 C 2150.699219 624.667969 2173.9375 672.105469 2122.898438 722.300781 C 2122.898438 722.300781 2113.027344 691.847656 2102.921875 688.390625 L 2088.867188 755.769531 L 2096.203125 684.96875 C 2096.203125 684.96875 2082.617188 694.980469 2079.113281 711.824219 C 2079.113281 711.824219 2052.441406 671.105469 2073 634.15625 L 2094.609375 673.140625 L 2104.714844 676.597656 L 2150.699219 624.667969 " fill-opacity="1" fill-rule="nonzero"/><path fill="#efefef" d="M 2153.878906 648.308594 C 2153.878906 648.308594 2154.074219 624.691406 2150.722656 621.289062 C 2150.722656 621.289062 2119.988281 664.910156 2099.660156 674.863281 C 2099.660156 674.863281 2126.578125 685.210938 2126.378906 708.832031 C 2126.378906 708.832031 2153.65625 675.304688 2153.878906 648.308594 " fill-opacity="1" fill-rule="nonzero"/><path fill="#efefef" d="M 2079.820312 624.085938 C 2079.820312 624.085938 2079.554688 657.820312 2099.660156 674.863281 C 2099.660156 674.863281 2082.734375 681.476562 2079.195312 701.695312 C 2079.195312 701.695312 2056.015625 647.507812 2079.820312 624.085938 " fill-opacity="1" fill-rule="nonzero"/><path fill="#b4ced6" d="M 4204.140625 2376.957031 C 4204.140625 2408.578125 4023.234375 2434.210938 3800.054688 2434.210938 C 3576.898438 2434.210938 3395.992188 2408.578125 3395.992188 2376.957031 C 3395.992188 2345.328125 3576.898438 2319.695312 3800.054688 2319.695312 C 4023.234375 2319.695312 4204.140625 2345.328125 4204.140625 2376.957031 " fill-opacity="1" fill-rule="nonzero"/><path fill="#e55857" d="M 3655.949219 1043.34375 C 3655.949219 1043.34375 3677.953125 1014.742188 3672.667969 1009.734375 C 3667.371094 1004.730469 3659.558594 1020.980469 3657.007812 1016.671875 C 3654.457031 1012.367188 3666.648438 981.914062 3659.136719 977.070312 C 3652.734375 972.9375 3648.660156 1006.5 3646.785156 1005.289062 C 3644.898438 1004.078125 3640.628906 975.242188 3636.003906 973.320312 C 3631.382812 971.410156 3629.429688 981.867188 3635.667969 1000.246094 C 3635.667969 1000.246094 3638.019531 1008.152344 3636.65625 1007.800781 C 3635.285156 1007.453125 3623.246094 983.191406 3619.8125 985.230469 C 3616.367188 987.265625 3619.066406 993.808594 3628.902344 1012.390625 C 3628.902344 1012.390625 3630.941406 1015.835938 3629.054688 1014.625 C 3627.179688 1013.414062 3612.882812 995.136719 3612.152344 1003.714844 C 3611.40625 1012.285156 3642.398438 1050.898438 3642.398438 1050.898438 L 3655.949219 1043.34375 " fill-opacity="1" fill-rule="nonzero"/><path fill="#1279a9" d="M 3707.011719 1308.121094 C 3716.582031 1305.011719 3726.171875 1301.941406 3735.765625 1298.867188 C 3781.753906 1284.117188 3827.507812 1268.414062 3869.882812 1246.015625 C 3843.304688 1242.871094 3817.460938 1234.339844 3788.644531 1217.691406 C 3740.179688 1189.695312 3728.980469 1174.96875 3728.980469 1174.96875 C 3701.398438 1129.894531 3658.042969 1043.820312 3658.042969 1043.820312 C 3645.097656 1040.558594 3638.042969 1047.824219 3638.042969 1047.824219 C 3638.042969 1047.824219 3620.71875 1112.246094 3674.996094 1247.390625 C 3684.179688 1270.253906 3695.171875 1290.414062 3707.011719 1308.121094 " fill-opacity="1" fill-rule="nonzero"/><path fill="#f7f7f7" d="M 3311.984375 1213.292969 C 3620.136719 1099.558594 3793.941406 1040.246094 3793.976562 1033.203125 C 3794.011719 1017.730469 3465.261719 0 3465.261719 0 C 3465.261719 0 3277.40625 71.582031 2961.023438 202.417969 C 2963.257812 202.964844 3255.4375 1075.179688 3311.984375 1213.292969 " fill-opacity="1" fill-rule="nonzero"/><path fill="#479bdb" d="M 3407.203125 376.195312 L 3329.503906 168.308594 L 3148.703125 249.167969 L 3220.964844 461.703125 Z M 3319.316406 207.027344 L 3377.015625 360.621094 L 3231.140625 422.984375 L 3175.785156 265.523438 L 3319.316406 207.027344 " fill-opacity="1" fill-rule="nonzero"/><path fill="#20853d" d="M 3382.5 333.054688 L 3272.84375 321.507812 L 3314.753906 263.125 L 3291.367188 227.097656 L 3218.265625 317.558594 L 3229 360.980469 L 3372.753906 384.324219 C 3377.039062 367.453125 3380.402344 350.378906 3382.5 333.054688 " fill-opacity="1" fill-rule="nonzero"/><path fill="#d8d8d8" d="M 3580.195312 842.636719 L 3446.414062 445.460938 L 3418.554688 459.257812 L 3553.007812 851.636719 C 3562.160156 848.886719 3571.207031 845.839844 3580.195312 842.636719 " fill-opacity="1" fill-rule="nonzero"/><path fill="#d8d8d8" d="M 3574.976562 915.707031 L 3605.898438 1005.941406 C 3614.058594 1001.386719 3622.453125 997.289062 3631.023438 993.53125 L 3601.078125 904.613281 C 3592.371094 908.28125 3583.628906 911.890625 3574.976562 915.707031 " fill-opacity="1" fill-rule="nonzero"/><path fill="#d8d8d8" d="M 3424.097656 672.234375 L 3361.136719 484.261719 L 3333.488281 497.859375 L 3395.738281 680.671875 C 3405.203125 677.890625 3414.679688 675.167969 3424.097656 672.234375 " fill-opacity="1" fill-rule="nonzero"/><path fill="#d8d8d8" d="M 3445.390625 737.390625 C 3436.15625 740.277344 3426.9375 743.222656 3417.648438 745.957031 L 3506.453125 1005.847656 C 3514.964844 1002.109375 3523.613281 998.640625 3532.332031 995.324219 L 3445.390625 737.390625 " fill-opacity="1" fill-rule="nonzero"/><path fill="#d8d8d8" d="M 3398.390625 891.203125 L 3275.859375 523.074219 L 3248.40625 536.460938 L 3371.476562 900.585938 C 3380.335938 897.152344 3389.355469 894.183594 3398.390625 891.203125 " fill-opacity="1" fill-rule="nonzero"/><path fill="#d8d8d8" d="M 3438.429688 42.828125 C 3401.417969 53.257812 3049.957031 196.679688 3003.191406 216.027344 L 3331.332031 1173.492188 L 3750.550781 1010.234375 C 3741.226562 978.6875 3675.695312 757.296875 3607.179688 536.019531 C 3563.953125 396.40625 3528.027344 284.160156 3500.386719 202.40625 C 3456.320312 72.046875 3442.585938 47.042969 3438.429688 42.828125 Z M 2992.292969 211.101562 L 2996.078125 209.542969 C 3017.417969 200.707031 3409.824219 40.117188 3437.824219 33.992188 C 3442.863281 32.898438 3447.730469 35.320312 3464.4375 76.75 C 3474.496094 101.6875 3487.882812 138.636719 3504.207031 186.550781 C 3531.679688 267.164062 3567.933594 380.015625 3611.953125 521.957031 C 3686.871094 763.59375 3759.320312 1009.128906 3760.027344 1011.585938 L 3761.15625 1015.390625 L 3326.046875 1184.96875 L 3324.570312 1180.652344 L 2992.292969 211.101562 " fill-opacity="1" fill-rule="nonzero"/><path fill="#f27461" d="M 3475.914062 1046.347656 C 3475.914062 1046.347656 3497.917969 1017.742188 3492.632812 1012.738281 C 3487.335938 1007.730469 3479.523438 1023.984375 3476.976562 1019.675781 C 3474.425781 1015.367188 3486.625 984.914062 3479.105469 980.0625 C 3472.703125 975.941406 3468.640625 1009.5 3466.753906 1008.292969 C 3464.878906 1007.082031 3460.59375 978.246094 3455.972656 976.324219 C 3451.351562 974.414062 3449.40625 984.855469 3455.636719 1003.25 C 3455.636719 1003.25 3457.988281 1011.15625 3456.625 1010.804688 C 3455.25 1010.457031 3443.226562 986.195312 3439.777344 988.234375 C 3436.332031 990.269531 3439.035156 996.800781 3448.871094 1015.390625 C 3448.871094 1015.390625 3450.910156 1018.828125 3449.035156 1017.617188 C 3447.148438 1016.40625 3432.851562 998.140625 3432.117188 1006.707031 C 3431.386719 1015.289062 3462.363281 1053.890625 3462.363281 1053.890625 L 3475.914062 1046.347656 " fill-opacity="1" fill-rule="nonzero"/><path fill="#f27461" d="M 3725.042969 2287.949219 L 3735.054688 2338.949219 L 3746.058594 2333.945312 L 3739.050781 2283.945312 L 3725.042969 2287.949219 " fill-opacity="1" fill-rule="nonzero"/><path fill="#582c5f" d="M 3710.210938 2362.394531 C 3710.210938 2362.394531 3685.753906 2357.203125 3678.894531 2372.769531 C 3670.78125 2391.183594 3692.585938 2394.804688 3705.554688 2393.839844 C 3718.523438 2392.859375 3728.410156 2391.113281 3741.667969 2367.0625 C 3754.90625 2343 3760.542969 2324.527344 3745.511719 2324.65625 C 3730.46875 2324.769531 3710.210938 2362.394531 3710.210938 2362.394531 " fill-opacity="1" fill-rule="nonzero"/><path fill="#4a1c53" d="M 3745.511719 2324.65625 C 3730.46875 2324.769531 3710.210938 2362.394531 3710.210938 2362.394531 L 3710.050781 2362.359375 C 3707.417969 2367.320312 3704.566406 2373.328125 3704.042969 2376.957031 C 3703.074219 2383.78125 3676.800781 2382.5 3681.828125 2368.273438 C 3680.664062 2369.542969 3679.664062 2371.011719 3678.894531 2372.769531 C 3670.78125 2391.183594 3692.585938 2394.804688 3705.554688 2393.839844 C 3718.523438 2392.859375 3728.410156 2391.113281 3741.667969 2367.0625 C 3754.90625 2343 3760.542969 2324.527344 3745.511719 2324.65625 " fill-opacity="1" fill-rule="nonzero"/><path fill="#e55857" d="M 3871.082031 2287.949219 L 3881.09375 2338.949219 L 3892.097656 2333.945312 L 3885.085938 2283.945312 L 3871.082031 2287.949219 " fill-opacity="1" fill-rule="nonzero"/><path fill="#582c5f" d="M 3856.238281 2362.394531 C 3856.238281 2362.394531 3831.765625 2357.203125 3824.910156 2372.769531 C 3816.808594 2391.183594 3838.625 2394.804688 3851.582031 2393.839844 C 3864.550781 2392.859375 3874.445312 2391.113281 3887.683594 2367.0625 C 3900.910156 2343 3906.578125 2324.527344 3891.527344 2324.65625 C 3876.507812 2324.769531 3856.238281 2362.394531 3856.238281 2362.394531 " fill-opacity="1" fill-rule="nonzero"/><path fill="#4a1c53" d="M 3891.527344 2324.65625 C 3876.507812 2324.769531 3856.238281 2362.394531 3856.238281 2362.394531 L 3856.050781 2362.359375 C 3853.433594 2367.320312 3850.605469 2373.328125 3850.070312 2376.957031 C 3849.113281 2383.78125 3822.824219 2382.5 3827.867188 2368.273438 C 3826.703125 2369.542969 3825.691406 2371.011719 3824.910156 2372.769531 C 3816.808594 2391.183594 3838.625 2394.804688 3851.582031 2393.839844 C 3864.550781 2392.859375 3874.445312 2391.113281 3887.683594 2367.0625 C 3900.910156 2343 3906.578125 2324.527344 3891.527344 2324.65625 " fill-opacity="1" fill-rule="nonzero"/><path fill="#562f5e" d="M 3909.082031 1625.878906 L 3726.058594 1610.875 C 3726.058594 1610.875 3639.042969 1925.910156 3647.042969 1966.921875 C 3655.039062 2007.921875 3722.0625 2299.953125 3722.0625 2299.953125 L 3748.050781 2295.949219 C 3748.050781 2295.949219 3699.546875 1972.414062 3704.542969 1954.40625 C 3707.242188 1944.734375 3753.507812 1850.378906 3795.675781 1765.273438 C 3801.871094 1840.460938 3808.554688 1922.554688 3810.066406 1945.921875 C 3813.082031 1991.914062 3868.066406 2296.949219 3868.066406 2296.949219 L 3892.097656 2296.949219 C 3892.097656 2296.949219 3873.074219 1996.921875 3870.070312 1977.910156 C 3867.089844 1958.910156 3909.082031 1625.878906 3909.082031 1625.878906 " fill-opacity="1" fill-rule="nonzero"/><path fill="#4298dd" d="M 3808.25 1739.265625 L 3808.496094 1739.429688 L 3808.644531 1739.113281 Z M 3808.25 1739.265625 " fill-opacity="1" fill-rule="nonzero"/><path fill="#481f52" d="M 3726.058594 1610.875 C 3726.058594 1610.875 3667.753906 1821.964844 3650.976562 1921.042969 C 3664.261719 1866.804688 3709.769531 1713.445312 3748.050781 1675.878906 C 3801.066406 1623.878906 3906.101562 1676.878906 3856.085938 1714.890625 C 3853.199219 1717.078125 3816.0625 1728.894531 3816.0625 1728.894531 L 3795.769531 1766.574219 C 3801.941406 1841.417969 3808.554688 1922.695312 3810.066406 1945.921875 C 3813.082031 1991.914062 3868.066406 2299.953125 3868.066406 2299.953125 L 3892.097656 2296.949219 C 3892.097656 2296.949219 3873.074219 1996.921875 3870.070312 1977.910156 C 3867.089844 1958.910156 3909.082031 1625.878906 3909.082031 1625.878906 L 3726.058594 1610.875 " fill-opacity="1" fill-rule="nonzero"/><path fill="#371443" d="M 3858.917969 1713.527344 C 3858.4375 1712.234375 3857.007812 1711.570312 3855.703125 1712.035156 L 3813.792969 1727.378906 L 3813.347656 1728.265625 C 3726.289062 1900.367188 3700.003906 1962.335938 3699.746094 1962.941406 L 3699.476562 1963.566406 L 3743.078125 2295.773438 C 3743.136719 2296.097656 3743.21875 2296.402344 3743.367188 2296.679688 C 3744.917969 2296.460938 3746.441406 2296.226562 3747.992188 2295.984375 C 3748.050781 2295.714844 3748.085938 2295.421875 3748.015625 2295.121094 L 3704.613281 1964.265625 C 3707.546875 1957.433594 3735.347656 1893.546875 3817.34375 1731.394531 L 3857.425781 1716.738281 C 3858.742188 1716.261719 3859.394531 1714.832031 3858.917969 1713.527344 " fill-opacity="1" fill-rule="nonzero"/><path fill="#f27461" d="M 3916.078125 1157.835938 L 3857.078125 1263.851562 L 3816.0625 1244.839844 L 3839.519531 1197.636719 C 3839.519531 1197.636719 3816.503906 1196.191406 3806.074219 1178.835938 C 3796.78125 1163.386719 3832.070312 1112.828125 3832.070312 1112.828125 L 3916.078125 1157.835938 " fill-opacity="1" fill-rule="nonzero"/><path fill="#479bdb" d="M 3965.117188 1400.855469 C 3964.8125 1403.847656 3950.085938 1530.875 3933.101562 1620.875 C 3933.101562 1620.875 3833.082031 1686.890625 3698.046875 1607.882812 L 3659.046875 1416.863281 C 3659.046875 1416.863281 3553.007812 1374.441406 3500.015625 1249.847656 C 3443.003906 1115.832031 3459 1050.828125 3459 1050.828125 C 3459 1050.828125 3466.007812 1043.820312 3479.011719 1046.824219 C 3479.011719 1046.824219 3524.019531 1131.828125 3552.519531 1176.332031 C 3552.519531 1176.332031 3564.023438 1190.835938 3613.035156 1217.84375 C 3665.542969 1246.773438 3707.953125 1249.601562 3762.089844 1241.675781 C 3798.65625 1236.308594 3839.636719 1233.386719 3867.589844 1240.519531 C 3929.582031 1256.34375 3974.59375 1304.351562 3965.117188 1400.855469 " fill-opacity="1" fill-rule="nonzero"/><path fill="#2f8ac2" d="M 3867.589844 1240.519531 C 3862.375 1239.195312 3856.679688 1238.203125 3850.664062 1237.53125 C 3869.171875 1250.707031 3907.078125 1286.875 3911.585938 1364.347656 C 3917.570312 1467.363281 3871.582031 1526.371094 3785.570312 1528.375 C 3715.589844 1529.992188 3680.398438 1483.402344 3666.589844 1453.824219 L 3698.046875 1607.882812 C 3833.082031 1686.890625 3933.101562 1620.875 3933.101562 1620.875 C 3950.085938 1530.875 3964.8125 1403.847656 3965.117188 1400.855469 C 3974.59375 1304.351562 3929.582031 1256.34375 3867.589844 1240.519531 " fill-opacity="1" fill-rule="nonzero"/><path fill="#f27461" d="M 3796.574219 1237.644531 C 3812.664062 1244.175781 3855.433594 1258.996094 3885.796875 1246.332031 C 3879.8125 1244.027344 3874.214844 1241.40625 3868.066406 1239.847656 C 3848.730469 1234.898438 3822.617188 1235.46875 3796.574219 1237.644531 " fill-opacity="1" fill-rule="nonzero"/><path fill="#ffb002" d="M 3842.105469 1121.558594 C 3842.105469 1121.558594 3806.339844 1126.4375 3812.835938 1082.550781 C 3819.367188 1038.664062 3912.832031 1047.601562 3941.296875 1096.367188 C 3969.726562 1145.132812 3983.554688 1152.457031 4040.453125 1157.320312 C 4097.347656 1162.199219 4103.84375 1245.109375 4087.601562 1275.992188 C 4071.324219 1306.875 4047.75 1295.503906 4028.261719 1335.328125 C 4008.738281 1375.152344 3969.726562 1393.847656 3925.859375 1364.582031 C 3881.957031 1335.328125 3884.402344 1296.316406 3885.203125 1267.867188 C 3886.007812 1239.414062 3887.648438 1239.414062 3877.871094 1218.285156 C 3868.125 1197.15625 3863.234375 1193.082031 3868.125 1176.832031 C 3868.125 1176.832031 3881.117188 1187.402344 3885.203125 1174.386719 C 3889.253906 1161.394531 3888.453125 1145.132812 3870.570312 1153.257812 C 3870.570312 1153.257812 3851.882812 1145.949219 3842.105469 1121.558594 " fill-opacity="1" fill-rule="nonzero"/><path fill="#ef9500" d="M 3952.261719 1259.332031 C 3893.433594 1225.269531 3933.15625 1137.007812 3933.15625 1137.007812 C 3933.15625 1137.007812 3881.117188 1138.625 3859.183594 1092.304688 C 3844.609375 1061.539062 3860.117188 1055.625 3872.175781 1055.113281 C 3843.152344 1051.199219 3816.238281 1059.722656 3812.835938 1082.550781 C 3806.339844 1126.4375 3842.105469 1121.558594 3842.105469 1121.558594 C 3851.882812 1145.949219 3870.570312 1153.257812 3870.570312 1153.257812 C 3888.453125 1145.132812 3889.253906 1161.394531 3885.203125 1174.386719 C 3881.117188 1187.402344 3868.125 1176.832031 3868.125 1176.832031 C 3863.234375 1193.082031 3868.125 1197.15625 3877.871094 1218.285156 C 3887.648438 1239.414062 3886.007812 1239.414062 3885.203125 1267.867188 C 3884.402344 1296.316406 3881.957031 1335.328125 3925.859375 1364.582031 C 3969.726562 1393.847656 4008.738281 1375.152344 4028.261719 1335.328125 C 4047.75 1295.503906 4071.324219 1306.875 4087.601562 1275.992188 C 4097.113281 1257.925781 4098.835938 1222.070312 4087.21875 1194.433594 C 4101.011719 1252.652344 4014.046875 1295.09375 3952.261719 1259.332031 " fill-opacity="1" fill-rule="nonzero"/><path fill="#085d77" d="M 3701.550781 1431.855469 C 3702.867188 1431.855469 3703.972656 1430.832031 3704.042969 1429.503906 C 3704.125 1428.132812 3703.0625 1426.945312 3701.691406 1426.863281 C 3684.25 1425.871094 3659.046875 1416.863281 3659.046875 1416.863281 L 3660.246094 1422.765625 C 3670.992188 1426.910156 3685.207031 1430.9375 3701.398438 1431.855469 L 3701.550781 1431.855469 " fill-opacity="1" fill-rule="nonzero"/><path fill="#085d77" d="M 3764.707031 1602.738281 C 3724.472656 1594.066406 3697.300781 1580.082031 3691.757812 1577.082031 L 3693.050781 1583.378906 C 3703.144531 1588.464844 3728.46875 1600.011719 3763.488281 1607.589844 C 3782.089844 1611.621094 3805.210938 1614.855469 3831.40625 1614.855469 C 3863.121094 1614.855469 3899.359375 1610.09375 3937.546875 1596.242188 C 3937.871094 1594.34375 3938.199219 1592.445312 3938.523438 1590.539062 C 3868.929688 1616.519531 3805.722656 1611.585938 3764.707031 1602.738281 " fill-opacity="1" fill-rule="nonzero"/><path fill="#e55857" d="M 3863.0625 1192.839844 C 3853.851562 1195.5625 3846.074219 1197.042969 3839.460938 1197.707031 L 3828.367188 1220.078125 C 3860.347656 1214.480469 3863.0625 1192.839844 3863.0625 1192.839844 " fill-opacity="1" fill-rule="nonzero"/></svg>