<svg xmlns="http://www.w3.org/2000/svg" xmlns:xlink="http://www.w3.org/1999/xlink" width="500" zoomAndPan="magnify" viewBox="0 0 375 374.999991" height="500" preserveAspectRatio="xMidYMid meet" version="1.0"><defs><clipPath id="367276c20d"><path d="M 0.289062 244.289062 L 374.710938 244.289062 L 374.710938 319.023438 L 0.289062 319.023438 Z M 0.289062 244.289062 " clip-rule="nonzero"/></clipPath><clipPath id="0118591a11"><path d="M 224 55.78125 L 310 55.78125 L 310 179 L 224 179 Z M 224 55.78125 " clip-rule="nonzero"/></clipPath></defs><rect x="-37.5" width="450" fill="#ffffff" y="-37.499999" height="449.999989" fill-opacity="1"/><rect x="-37.5" width="450" fill="#ffffff" y="-37.499999" height="449.999989" fill-opacity="1"/><rect x="-37.5" width="450" fill="#d4adfc" y="-37.499999" height="449.999989" fill-opacity="1"/><path fill="#d6e6ed" d="M 345.21875 93.433594 C 345.21875 93.433594 295.8125 95.265625 293.667969 92.972656 C 291.527344 90.679688 290.917969 84.414062 302.847656 85.484375 C 302.847656 85.484375 291.984375 71.421875 308.660156 68.820312 C 325.332031 66.222656 323.34375 79.371094 323.34375 79.371094 C 323.34375 79.371094 339.863281 70.046875 335.429688 85.179688 C 335.429688 85.179688 339.558594 82.121094 340.78125 87.472656 C 340.78125 87.472656 366.480469 92.363281 345.21875 93.433594 " fill-opacity="1" fill-rule="nonzero"/><path fill="#d6e6ed" d="M 63.082031 142.414062 C 63.082031 142.414062 75.070312 142.300781 73.359375 139.332031 C 71.644531 136.367188 60.113281 137.28125 60.113281 137.28125 C 60.113281 137.28125 60.914062 132.488281 57.261719 131.003906 C 53.609375 129.523438 49.953125 130.777344 49.953125 130.777344 C 49.953125 130.777344 54.179688 117.769531 44.246094 117.199219 C 34.3125 116.628906 35.910156 128.039062 35.910156 128.039062 C 35.910156 128.039062 33.972656 122.90625 29.175781 126.214844 C 24.378906 129.523438 28.261719 135.683594 28.261719 135.683594 C 28.261719 135.683594 25.292969 132.03125 21.296875 134.429688 C 17.300781 136.824219 18.214844 140.359375 18.214844 140.359375 C 18.214844 140.359375 6.34375 141.84375 9.878906 143.441406 C 13.421875 145.039062 63.082031 142.414062 63.082031 142.414062 " fill-opacity="1" fill-rule="nonzero"/><g clip-path="url(#367276c20d)"><path fill="#d6e6ed" d="M 374.710938 284.941406 C 374.710938 305.03125 302.542969 321.316406 189.277344 318.757812 C 79.394531 316.277344 0.289062 299.0625 0.289062 278.972656 C 0.289062 258.878906 73.464844 244.582031 183.375 244.582031 C 293.289062 244.582031 374.710938 264.847656 374.710938 284.941406 " fill-opacity="1" fill-rule="nonzero"/></g><path fill="#b4ced6" d="M 298.347656 276.199219 C 292.914062 289.027344 244.964844 301.421875 179.109375 301.421875 C 113.257812 301.421875 53.613281 290.054688 59.871094 276.199219 C 65.605469 263.503906 113.257812 250.546875 179.109375 250.976562 C 266.351562 251.546875 304.035156 262.769531 298.347656 276.199219 " fill-opacity="1" fill-rule="nonzero"/><path fill="#cc234b" d="M 91.664062 183.558594 C 91.664062 183.558594 89.527344 275.03125 91.664062 278.503906 C 93.804688 281.972656 218.351562 297.464844 223.828125 295.863281 C 229.308594 294.261719 274.609375 266.351562 275.546875 262.613281 C 276.480469 258.871094 275.546875 128.140625 275.546875 128.140625 L 91.664062 183.558594 " fill-opacity="1" fill-rule="nonzero"/><path fill="#af0b3a" d="M 91.53125 189.695312 C 102.539062 191.140625 223.453125 207.007812 224.402344 205.789062 C 225.398438 204.507812 224.402344 195.273438 224.402344 195.273438 L 98.851562 181.390625 L 91.664062 183.558594 C 91.664062 183.558594 91.613281 185.839844 91.53125 189.695312 " fill-opacity="1" fill-rule="nonzero"/><path fill="#af0b3a" d="M 223.429688 143.847656 C 223.429688 170.722656 223.429688 272.945312 223.429688 295.929688 C 223.597656 295.914062 223.730469 295.890625 223.828125 295.863281 C 229.308594 294.261719 274.609375 266.351562 275.546875 262.613281 C 276.480469 258.871094 275.546875 128.140625 275.546875 128.140625 L 223.429688 143.847656 " fill-opacity="1" fill-rule="nonzero"/><path fill="#cc234b" d="M 139.640625 105.972656 C 139.640625 105.972656 87.789062 162.992188 86.453125 167.53125 C 85.117188 172.074219 86.453125 185.828125 86.453125 185.828125 C 86.453125 185.828125 221.824219 203.054688 226.636719 201.453125 C 231.445312 199.847656 280.890625 142.425781 281.425781 135.75 C 281.886719 130.003906 282.359375 115.585938 280.625 114.785156 C 277.9375 113.546875 144.585938 100.496094 139.640625 105.972656 " fill-opacity="1" fill-rule="nonzero"/><path fill="#af0b3a" d="M 281.425781 135.75 C 281.878906 130.082031 282.347656 115.992188 280.695312 114.828125 C 269.007812 129.296875 229.863281 177.65625 227.703125 179.015625 C 225.164062 180.621094 89.527344 167.53125 89.527344 167.53125 C 89.527344 167.53125 225.164062 181.6875 225.964844 182.089844 C 226.730469 182.46875 226.644531 199.761719 226.636719 201.453125 C 231.449219 199.84375 280.890625 142.425781 281.425781 135.75 " fill-opacity="1" fill-rule="nonzero"/><path fill="#8c0331" d="M 225.273438 201.878906 C 211.96875 201.878906 119.878906 190.386719 90.671875 186.699219 C 90.492188 186.675781 90.363281 186.507812 90.386719 186.324219 C 90.40625 186.140625 90.574219 186.011719 90.757812 186.035156 C 154.238281 194.054688 223.242188 202.230469 226.527344 201.136719 C 228.292969 200.546875 237.226562 191.253906 248.753906 178.003906 C 258.171875 167.1875 270.566406 152.261719 277.105469 142.828125 C 277.210938 142.675781 277.417969 142.640625 277.570312 142.742188 C 277.722656 142.847656 277.761719 143.058594 277.65625 143.207031 C 271.097656 152.667969 258.6875 167.609375 249.261719 178.441406 C 239.882812 189.214844 229.042969 201 226.742188 201.769531 C 226.515625 201.84375 226.015625 201.878906 225.273438 201.878906 " fill-opacity="1" fill-rule="nonzero"/><path fill="#d6295b" d="M 178.125 172.339844 C 178.125 172.339844 223.964844 177.148438 226.503906 175.945312 C 229.042969 174.742188 262.714844 135.484375 261.914062 133.882812 C 261.507812 133.066406 252.5625 143.25 243.359375 153.433594 C 234.472656 163.269531 225.34375 173.105469 223.433594 173.027344 C 219.550781 172.875 150.332031 168.867188 178.125 172.339844 " fill-opacity="1" fill-rule="nonzero"/><path fill="#d6295b" d="M 126.277344 124.132812 C 126.277344 124.132812 138.570312 107.308594 142.582031 106.773438 C 146.589844 106.238281 214.074219 109.3125 231.3125 111.582031 C 248.550781 113.851562 148.859375 107.84375 142.3125 109.710938 C 138.65625 110.753906 119.59375 133.746094 120.796875 131.210938 C 122 128.675781 126.277344 124.132812 126.277344 124.132812 " fill-opacity="1" fill-rule="nonzero"/><path fill="#70032d" d="M 149.261719 134.609375 C 149.261719 134.609375 222.085938 137.949219 222.214844 139.015625 C 222.347656 140.085938 218.074219 143.957031 218.074219 143.957031 C 218.074219 143.957031 144.183594 140.023438 144.585938 139.222656 C 144.988281 138.421875 149.261719 134.609375 149.261719 134.609375 " fill-opacity="1" fill-rule="nonzero"/><path fill="#ffffff" d="M 124.300781 233.597656 L 124.734375 231.9375 L 125.210938 230.085938 L 125.644531 228.265625 C 126.222656 225.972656 126.734375 224.152344 127.175781 222.796875 C 127.621094 221.367188 127.9375 219.890625 128.132812 218.375 C 128.164062 217.925781 128.40625 217.664062 128.855469 217.585938 C 129.503906 217.402344 130.226562 217.359375 131.023438 217.460938 C 132.066406 217.589844 133.113281 217.679688 134.15625 217.730469 L 134.53125 217.777344 C 134.878906 217.875 135.050781 218.109375 135.042969 218.480469 C 135.042969 218.507812 135.015625 218.648438 134.964844 218.90625 C 134.828125 219.6875 134.480469 221.359375 133.921875 223.921875 L 133.285156 226.789062 L 133.125 227.527344 L 132.964844 228.222656 C 132.832031 228.976562 132.726562 229.441406 132.648438 229.621094 L 132.371094 230.699219 C 132.242188 231.164062 132.125 231.53125 132.023438 231.8125 L 131.238281 234.347656 L 130.53125 236.886719 C 129.90625 238.910156 129.359375 240.59375 128.894531 241.945312 C 128.738281 242.457031 128.410156 242.707031 127.914062 242.699219 L 125.707031 242.78125 C 124.710938 242.789062 123.9375 242.71875 123.394531 242.574219 L 122.089844 242.410156 C 121.890625 242.382812 121.691406 242.347656 121.492188 242.296875 L 120.488281 242.167969 C 120.238281 242.136719 120.054688 241.957031 119.933594 241.621094 C 119.570312 240.753906 119.261719 239.757812 119.003906 238.636719 C 118.726562 237.167969 118.296875 235.652344 117.722656 234.089844 L 117 232.128906 C 116.90625 231.824219 116.785156 231.476562 116.640625 231.085938 L 116.5 230.589844 L 116.355469 230.175781 L 114.957031 225.972656 L 114.597656 224.972656 C 114.476562 224.640625 114.371094 224.292969 114.273438 223.9375 C 114.132812 223.441406 113.941406 222.699219 113.707031 221.714844 L 113.390625 220.476562 L 113.070312 219.160156 L 112.683594 217.480469 C 112.542969 216.800781 112.785156 216.496094 113.40625 216.574219 L 115.195312 216.71875 L 115.644531 216.773438 C 115.769531 216.789062 115.90625 216.78125 116.054688 216.746094 C 116.652344 216.6875 117.363281 216.789062 118.179688 217.050781 L 118.589844 217.179688 L 119 217.273438 C 119.394531 217.347656 119.640625 217.589844 119.734375 218.003906 L 120.910156 222.097656 L 121.414062 223.710938 L 121.554688 224.167969 L 121.660156 224.621094 C 121.757812 224.949219 121.828125 225.199219 121.875 225.363281 C 121.921875 225.503906 122.015625 225.914062 122.15625 226.59375 L 122.296875 227.210938 L 122.402344 227.820312 L 123.210938 231.429688 L 123.460938 232.457031 C 123.601562 232.953125 123.707031 233.296875 123.78125 233.492188 L 123.851562 233.742188 C 123.902344 233.828125 123.988281 233.90625 124.109375 233.972656 L 124.300781 233.597656 " fill-opacity="1" fill-rule="nonzero"/><path fill="#ffffff" d="M 152.578125 233.464844 L 152.546875 233.0625 C 152.550781 232.796875 152.53125 232.527344 152.484375 232.257812 L 152.207031 230.667969 C 151.761719 228.671875 150.648438 227.285156 148.863281 226.503906 C 148.46875 226.402344 148.230469 226.359375 148.15625 226.375 C 147.785156 226.328125 147.386719 226.320312 146.964844 226.347656 L 146.511719 226.410156 L 146.0625 226.511719 C 145.113281 226.898438 144.378906 227.550781 143.871094 228.472656 C 143.152344 229.894531 142.714844 231.15625 142.546875 232.25 C 142.492188 232.800781 142.472656 233.144531 142.496094 233.28125 C 142.488281 233.96875 142.613281 234.703125 142.878906 235.480469 C 143.230469 236.933594 143.988281 238.089844 145.144531 238.953125 C 146.179688 239.691406 147.058594 240.042969 147.785156 240 C 148.679688 239.953125 149.316406 239.792969 149.695312 239.519531 C 150.699219 238.902344 151.472656 238.003906 152.011719 236.820312 C 152.34375 236.066406 152.53125 235.078125 152.574219 233.863281 L 152.578125 233.464844 M 136.964844 233.425781 C 137.023438 232.980469 137.070312 232.335938 137.105469 231.492188 L 137.152344 230.898438 L 137.160156 230.382812 C 137.164062 230.011719 137.179688 229.746094 137.207031 229.589844 C 137.425781 228.078125 137.78125 226.660156 138.273438 225.339844 C 138.761719 224.101562 139.25 223.125 139.734375 222.414062 C 140.546875 221.214844 141.578125 220.441406 142.828125 220.089844 C 143.628906 219.84375 144.464844 219.722656 145.335938 219.726562 L 145.746094 219.738281 L 146.230469 219.757812 L 147.125 219.910156 L 147.835938 220 C 147.984375 220.042969 148.132812 220.074219 148.28125 220.09375 L 148.617188 220.136719 L 149.136719 220.242188 L 149.695312 220.429688 C 150.6875 220.820312 151.625 221.28125 152.515625 221.820312 C 153.699219 222.550781 154.757812 223.480469 155.691406 224.605469 C 156.082031 225.054688 156.542969 225.855469 157.074219 227.011719 C 157.605469 228.222656 158.070312 229.78125 158.46875 231.691406 C 158.722656 233.078125 158.804688 234.308594 158.714844 235.386719 C 158.6875 235.675781 158.667969 236.285156 158.652344 237.210938 C 158.671875 237.667969 158.574219 238.425781 158.359375 239.488281 C 158.097656 240.570312 157.558594 241.660156 156.746094 242.753906 L 156.554688 243.050781 L 156.441406 243.195312 L 156.289062 243.375 L 155.457031 244.226562 L 155.191406 244.472656 L 154.890625 244.753906 C 154.636719 244.960938 154.398438 245.144531 154.171875 245.300781 L 153.457031 245.769531 L 152.777344 246.242188 C 151.519531 247.042969 150.421875 247.4375 149.472656 247.421875 L 147.046875 247.480469 C 145.105469 247.34375 143.53125 246.667969 142.328125 245.457031 L 141.738281 244.902344 L 141.148438 244.3125 C 140.953125 244.128906 140.742188 243.917969 140.523438 243.675781 L 140.230469 243.398438 L 140.007812 243.132812 C 139.246094 242.292969 138.542969 241.050781 137.894531 239.402344 C 137.363281 237.980469 137.0625 236.519531 136.980469 235.023438 C 136.933594 234.804688 136.9375 234.554688 136.992188 234.265625 L 137.003906 233.433594 L 136.964844 233.425781 " fill-opacity="1" fill-rule="nonzero"/><path fill="#ffffff" d="M 172.644531 238.324219 C 172.625 239.941406 172.621094 240.988281 172.636719 241.46875 L 172.621094 242.902344 C 172.613281 243.355469 172.628906 243.847656 172.675781 244.382812 C 172.785156 245.382812 172.808594 246.378906 172.746094 247.382812 C 172.742188 247.488281 172.710938 247.9375 172.652344 248.726562 C 172.621094 249.148438 172.394531 249.359375 171.96875 249.359375 L 170.925781 249.347656 L 169.878906 249.375 C 169.355469 249.390625 168.796875 249.308594 168.199219 249.125 L 166.488281 248.671875 C 166.089844 248.597656 165.894531 248.320312 165.902344 247.84375 C 165.972656 246.363281 166.007812 245.53125 166.011719 245.34375 C 166.039062 245.164062 166.058594 244.769531 166.066406 244.15625 L 166.199219 239.75 L 166.207031 239.3125 L 166.285156 238.921875 C 166.3125 238.765625 166.328125 238.621094 166.332031 238.488281 L 166.335938 238.171875 L 166.3125 236.933594 L 166.257812 235.691406 C 166.261719 235.1875 166.28125 234.871094 166.308594 234.742188 L 166.332031 233.070312 C 166.332031 232.882812 166.320312 231.964844 166.292969 230.316406 C 166.296875 230.128906 166.285156 230.023438 166.261719 229.992188 C 166.1875 229.71875 166.042969 229.566406 165.816406 229.539062 L 165.519531 229.5 L 165.222656 229.503906 C 165.070312 229.484375 164.875 229.488281 164.625 229.507812 C 163.675781 229.601562 162.777344 229.625 161.933594 229.570312 L 161.820312 229.558594 L 161.671875 229.578125 C 161.324219 229.535156 161.113281 229.347656 161.046875 229.023438 C 160.875 228.628906 160.792969 228.179688 160.800781 227.675781 C 160.804688 227.410156 160.792969 226.425781 160.765625 224.722656 C 160.722656 224.238281 160.65625 223.777344 160.5625 223.339844 L 160.5625 223.300781 C 160.539062 223.273438 160.527344 223.230469 160.527344 223.179688 C 160.410156 222.554688 160.675781 222.253906 161.324219 222.28125 L 163.488281 222.472656 L 164.457031 222.59375 L 165.386719 222.75 C 165.910156 222.816406 166.546875 222.867188 167.292969 222.90625 C 167.664062 222.925781 168.050781 222.949219 168.449219 222.972656 C 168.972656 222.984375 169.496094 222.984375 170.019531 222.96875 C 170.292969 222.976562 170.914062 223.039062 171.882812 223.164062 L 172.628906 223.214844 L 173.410156 223.3125 L 175.421875 223.683594 C 175.796875 223.757812 176.167969 223.804688 176.542969 223.824219 C 177.015625 223.882812 177.261719 224.167969 177.277344 224.671875 L 177.285156 226.828125 L 177.25 229.292969 L 177.210938 229.605469 C 177.152344 230.050781 176.941406 230.265625 176.566406 230.242188 C 176.292969 230.316406 175.96875 230.328125 175.59375 230.28125 L 173.503906 230.101562 L 173.167969 230.058594 C 173.019531 230.011719 172.894531 230 172.796875 230.011719 C 172.523438 230.03125 172.382812 230.1875 172.378906 230.476562 L 172.371094 231.113281 C 172.429688 232.371094 172.523438 233.632812 172.65625 234.894531 C 172.679688 234.925781 172.691406 235.046875 172.6875 235.257812 L 172.644531 238.324219 " fill-opacity="1" fill-rule="nonzero"/><path fill="#ffffff" d="M 193.371094 230.550781 L 193.367188 230.789062 C 193.335938 231.128906 193.160156 231.320312 192.835938 231.359375 C 192.710938 231.371094 192.511719 231.359375 192.238281 231.324219 C 191.890625 231.335938 191.316406 231.316406 190.523438 231.269531 L 188.804688 231.09375 L 187.871094 231.058594 L 186.902344 231.058594 C 186.5 231.085938 186.300781 231.339844 186.292969 231.816406 C 186.261719 232.320312 186.253906 232.835938 186.273438 233.371094 L 186.261719 234.003906 C 186.261719 234.191406 186.28125 234.417969 186.328125 234.691406 C 186.347656 235.011719 186.507812 235.207031 186.804688 235.269531 C 186.929688 235.3125 187.042969 235.324219 187.140625 235.3125 L 189.230469 235.570312 C 190.074219 235.675781 190.621094 235.757812 190.871094 235.816406 C 191.863281 235.996094 192.820312 236.195312 193.738281 236.414062 C 194.183594 236.496094 194.429688 236.804688 194.472656 237.34375 L 194.652344 240.472656 C 194.695312 240.957031 194.71875 241.253906 194.714844 241.359375 C 194.710938 241.730469 194.546875 241.933594 194.222656 241.976562 L 193.699219 241.988281 L 193.210938 242.046875 C 192.789062 242.074219 192.453125 242.058594 192.203125 242.003906 L 192.019531 241.980469 L 191.871094 241.917969 L 191.535156 241.878906 C 190.9375 241.777344 190.253906 241.730469 189.480469 241.742188 L 188.4375 241.730469 L 187.425781 241.761719 L 186.492188 241.765625 C 186.191406 241.835938 186.042969 241.988281 186.039062 242.226562 C 185.976562 243.070312 185.945312 243.53125 185.945312 243.613281 C 185.917969 243.742188 185.902344 244.042969 185.894531 244.523438 C 185.890625 244.867188 186.097656 245.089844 186.519531 245.195312 C 187.238281 245.339844 187.789062 245.382812 188.160156 245.324219 C 188.636719 245.277344 189.433594 245.320312 190.550781 245.460938 L 192.265625 245.675781 L 193.085938 245.816406 L 193.945312 245.925781 C 194.191406 245.957031 194.339844 245.988281 194.390625 246.019531 C 194.6875 246.136719 194.847656 246.355469 194.867188 246.679688 L 194.859375 247.195312 L 194.917969 248.359375 L 194.941406 249.519531 C 194.960938 249.679688 194.941406 250.140625 194.882812 250.90625 L 194.878906 251.382812 C 194.820312 251.746094 194.644531 251.9375 194.347656 251.953125 C 193.847656 252 193.222656 251.988281 192.476562 251.921875 L 191.808594 251.835938 L 191.097656 251.789062 L 189.867188 251.753906 C 189.316406 251.765625 188.472656 251.699219 187.328125 251.554688 C 185.691406 251.21875 184.195312 251.136719 182.851562 251.316406 C 182.027344 251.398438 181.34375 251.367188 180.796875 251.21875 C 180.648438 251.144531 180.476562 251.125 180.273438 251.152344 L 179.753906 251.125 C 179.253906 251.089844 179.023438 250.824219 179.054688 250.320312 C 179.085938 249.769531 179.15625 249.273438 179.261719 248.835938 L 179.308594 245.453125 C 179.355469 243.890625 179.433594 242.558594 179.550781 241.457031 C 179.613281 240.324219 179.703125 239.191406 179.820312 238.0625 L 180.21875 233.410156 L 180.4375 231.203125 C 180.5 230.097656 180.539062 229.371094 180.542969 229.027344 C 180.597656 228.554688 180.644531 228.042969 180.675781 227.488281 L 180.84375 226.035156 L 180.972656 224.976562 C 181.027344 224.371094 181.332031 224.089844 181.878906 224.132812 L 182.4375 224.203125 C 182.636719 224.199219 183.0625 224.238281 183.707031 224.320312 L 184.339844 224.398438 L 184.976562 224.519531 L 186.09375 224.578125 C 186.292969 224.578125 186.503906 224.589844 186.730469 224.617188 L 187.25 224.683594 C 187.449219 224.683594 188.007812 224.765625 188.929688 224.933594 C 190.144531 225.246094 190.988281 225.417969 191.460938 225.449219 C 191.609375 225.441406 191.984375 225.5 192.578125 225.628906 C 192.976562 225.675781 193.210938 225.90625 193.28125 226.3125 C 193.324219 226.585938 193.347656 226.785156 193.34375 226.917969 L 193.332031 227.953125 L 193.289062 228.425781 L 193.371094 230.550781 " fill-opacity="1" fill-rule="nonzero"/><path fill="#d8d8d8" d="M 109.273438 245.871094 C 109.648438 246.085938 111.8125 246.851562 124.160156 248.8125 C 132.382812 250.117188 143.171875 251.644531 154.542969 253.109375 C 166.042969 254.59375 176.871094 255.847656 185.035156 256.648438 C 197.675781 257.882812 199.851562 257.628906 200.222656 257.503906 C 200.34375 257.386719 200.941406 256.578125 201.230469 251.785156 C 201.414062 248.773438 201.441406 244.695312 201.308594 239.992188 C 201.066406 231.191406 200.382812 223.5 200.003906 222.132812 C 199.132812 221.695312 193.160156 220.082031 154.617188 215.375 C 133.292969 212.769531 111.292969 210.394531 109.269531 210.394531 L 109.261719 210.394531 C 109.167969 210.492188 108.816406 210.964844 108.484375 212.890625 C 107.722656 217.335938 107.675781 225.652344 107.886719 231.960938 C 108.15625 239.984375 108.796875 245.054688 109.273438 245.871094 M 198.542969 258.945312 C 196.515625 258.945312 192.675781 258.734375 185.226562 258.007812 C 176.957031 257.203125 165.933594 255.925781 154.1875 254.410156 C 142.558594 252.910156 131.605469 251.355469 123.347656 250.035156 C 109.019531 247.746094 108.53125 247.105469 108.238281 246.726562 C 107.105469 245.242188 106.601562 235.175781 106.484375 229.460938 C 106.40625 225.777344 106.277344 213.507812 107.851562 210.15625 C 108.179688 209.453125 108.617188 209.085938 109.144531 209.0625 C 110.941406 208.988281 134.929688 211.617188 155.808594 214.175781 C 168.28125 215.703125 178.875 217.109375 186.449219 218.234375 C 200.726562 220.355469 200.976562 220.960938 201.195312 221.496094 C 201.773438 222.902344 202.441406 232.449219 202.648438 240.042969 C 203.117188 257.183594 201.484375 258.269531 200.949219 258.625 C 200.757812 258.753906 200.472656 258.945312 198.542969 258.945312 " fill-opacity="1" fill-rule="nonzero"/><path fill="#be1843" d="M 158.75 234.511719 C 158.75 233.65625 158.65625 232.714844 158.46875 231.691406 C 158.070312 229.78125 157.605469 228.222656 157.074219 227.011719 C 156.542969 225.855469 156.082031 225.054688 155.691406 224.605469 C 154.757812 223.480469 153.699219 222.550781 152.515625 221.820312 C 152.378906 221.734375 152.238281 221.65625 152.097656 221.574219 C 151.746094 219.976562 151.746094 219.703125 151.746094 219.703125 L 150.523438 214.878906 C 151.886719 215.042969 153.253906 215.207031 154.617188 215.375 C 154.683594 215.382812 154.75 215.390625 154.816406 215.398438 C 154.949219 219.554688 155.058594 222.351562 155.058594 222.351562 C 155.058594 222.351562 161.480469 230.910156 158.75 234.511719 " fill-opacity="1" fill-rule="nonzero"/><path fill="#d98ca2" d="M 156.746094 235.757812 C 154.582031 235.757812 154.167969 230.035156 153.074219 225.660156 C 152.597656 223.765625 152.292969 222.464844 152.097656 221.574219 C 152.238281 221.65625 152.378906 221.734375 152.515625 221.820312 C 153.699219 222.550781 154.757812 223.480469 155.691406 224.605469 C 156.082031 225.054688 156.542969 225.855469 157.074219 227.011719 C 157.605469 228.222656 158.070312 229.78125 158.46875 231.691406 C 158.65625 232.714844 158.75 233.65625 158.75 234.511719 C 158.640625 234.660156 158.515625 234.796875 158.371094 234.925781 C 157.738281 235.503906 157.203125 235.757812 156.746094 235.757812 " fill-opacity="1" fill-rule="nonzero"/><path fill="#be1843" d="M 99.453125 222.875 C 99.074219 222.875 98.730469 222.816406 98.429688 222.683594 C 95.449219 221.359375 99.425781 217.386719 99.425781 217.386719 L 105.734375 217.15625 C 105.734375 217.15625 107.515625 201.980469 109.152344 191.996094 C 111.90625 192.355469 114.90625 192.746094 118.085938 193.15625 C 116.503906 197.699219 114.171875 204.105469 112.269531 209.285156 C 110.699219 209.140625 109.644531 209.0625 109.230469 209.0625 C 109.199219 209.0625 109.167969 209.0625 109.144531 209.0625 C 108.617188 209.085938 108.179688 209.453125 107.851562 210.15625 C 107.054688 211.851562 106.695312 215.820312 106.542969 219.808594 C 104.445312 221.1875 101.464844 222.875 99.453125 222.875 " fill-opacity="1" fill-rule="nonzero"/><path fill="#af0b3a" d="M 118.085938 193.15625 C 114.90625 192.746094 111.90625 192.355469 109.152344 191.996094 C 109.320312 190.960938 109.488281 189.980469 109.652344 189.078125 C 112.652344 189.449219 115.8125 189.84375 119.105469 190.25 C 119.042969 190.367188 118.996094 190.476562 118.960938 190.582031 C 118.710938 191.339844 118.414062 192.207031 118.085938 193.15625 " fill-opacity="1" fill-rule="nonzero"/><path fill="#be1843" d="M 154.777344 214.050781 C 153.25 213.863281 151.714844 213.675781 150.171875 213.492188 L 145.914062 196.734375 C 148.730469 197.09375 151.574219 197.457031 154.425781 197.816406 C 154.484375 203.453125 154.636719 209.414062 154.777344 214.050781 " fill-opacity="1" fill-rule="nonzero"/><path fill="#af0b3a" d="M 154.425781 197.816406 C 151.574219 197.457031 148.730469 197.09375 145.914062 196.734375 L 145.074219 193.421875 C 148.164062 193.796875 151.285156 194.171875 154.402344 194.542969 C 154.40625 195.613281 154.414062 196.707031 154.425781 197.816406 " fill-opacity="1" fill-rule="nonzero"/><path fill="#be1843" d="M 154.402344 193.871094 C 151.28125 193.5 148.109375 193.117188 144.894531 192.730469 L 140.820312 176.683594 L 138.832031 175.027344 C 138.832031 175.027344 122.832031 185.023438 119.492188 189.628906 C 116.261719 189.226562 113.023438 188.824219 109.777344 188.421875 C 110.238281 185.957031 110.671875 184.183594 111.015625 183.632812 C 112.269531 181.628906 120.347656 174.507812 124.207031 171.164062 C 136.964844 172.5 151.808594 174.0625 166.148438 175.582031 L 159.695312 175.359375 C 159.695312 175.359375 159.695312 179.992188 155.390625 179.992188 C 154.621094 179.992188 154.390625 186.207031 154.402344 193.871094 M 177.335938 175.613281 C 159.820312 174.097656 140.570312 172.335938 124.570312 170.847656 C 125.601562 169.957031 126.25 169.402344 126.25 169.402344 L 149.761719 166.753906 C 149.761719 166.753906 166.566406 167.402344 174.011719 170.933594 C 170.578125 170.980469 170.363281 171.292969 175.898438 172.050781 C 177.195312 173.046875 177.800781 174.222656 177.335938 175.613281 " fill-opacity="1" fill-rule="nonzero"/><path fill="#af0b3a" d="M 177.203125 175.957031 L 166.148438 175.582031 C 151.808594 174.0625 136.964844 172.5 124.207031 171.164062 C 124.332031 171.054688 124.453125 170.949219 124.570312 170.847656 C 140.570312 172.335938 159.820312 174.097656 177.335938 175.613281 C 177.300781 175.726562 177.253906 175.839844 177.203125 175.957031 " fill-opacity="1" fill-rule="nonzero"/><path fill="#9c0735" d="M 154.402344 194.542969 C 151.285156 194.171875 148.164062 193.796875 145.074219 193.421875 L 144.894531 192.730469 C 148.109375 193.117188 151.28125 193.5 154.402344 193.871094 C 154.402344 194.09375 154.402344 194.316406 154.402344 194.542969 M 119.105469 190.25 C 115.8125 189.84375 112.652344 189.449219 109.652344 189.078125 C 109.695312 188.855469 109.734375 188.632812 109.777344 188.421875 C 113.023438 188.824219 116.261719 189.226562 119.492188 189.628906 C 119.332031 189.847656 119.203125 190.054688 119.105469 190.25 " fill-opacity="1" fill-rule="nonzero"/><path fill="#c41b4b" d="M 175.898438 172.050781 C 170.363281 171.292969 170.578125 170.980469 174.011719 170.933594 C 174.738281 171.277344 175.375 171.648438 175.898438 172.050781 " fill-opacity="1" fill-rule="nonzero"/><path fill="#be1843" d="M 107.921875 218.867188 C 108.03125 216.558594 108.210938 214.476562 108.484375 212.890625 C 108.816406 210.964844 109.167969 210.492188 109.261719 210.394531 L 109.269531 210.394531 C 109.601562 210.394531 110.472656 210.460938 111.792969 210.578125 C 110.210938 214.878906 109.027344 218.050781 109.027344 218.050781 C 109.027344 218.050781 108.605469 218.378906 107.921875 218.867188 " fill-opacity="1" fill-rule="nonzero"/><path fill="#c5788e" d="M 106.542969 219.808594 C 106.695312 215.820312 107.054688 211.851562 107.851562 210.15625 C 108.179688 209.453125 108.617188 209.085938 109.144531 209.0625 C 109.167969 209.0625 109.199219 209.0625 109.230469 209.0625 C 109.644531 209.0625 110.699219 209.140625 112.269531 209.285156 C 112.109375 209.726562 111.949219 210.15625 111.792969 210.578125 C 110.472656 210.460938 109.601562 210.394531 109.269531 210.394531 L 109.261719 210.394531 C 109.167969 210.492188 108.816406 210.964844 108.484375 212.890625 C 108.210938 214.476562 108.03125 216.558594 107.921875 218.867188 C 107.535156 219.140625 107.066406 219.464844 106.542969 219.808594 M 154.816406 215.398438 C 154.75 215.390625 154.683594 215.382812 154.617188 215.375 C 153.253906 215.207031 151.886719 215.042969 150.523438 214.878906 L 150.171875 213.492188 C 151.714844 213.675781 153.25 213.863281 154.777344 214.050781 C 154.789062 214.511719 154.804688 214.964844 154.816406 215.398438 " fill-opacity="1" fill-rule="nonzero"/><path fill="#085d77" d="M 122.277344 115.527344 C 122.277344 115.527344 123.800781 115.800781 124.03125 116.925781 C 124.261719 118.050781 123.648438 119.347656 121.902344 119.414062 L 122.277344 115.527344 " fill-opacity="1" fill-rule="nonzero"/><path fill="#479bdb" d="M 97.597656 115.308594 C 97.597656 115.308594 97.0625 121.277344 99.105469 124.085938 C 101.148438 126.886719 103.332031 124.683594 106.644531 122.246094 C 109.957031 119.808594 121.511719 120.371094 121.511719 120.371094 C 121.511719 120.371094 122.523438 119.578125 122.679688 117.496094 C 122.839844 115.410156 121.425781 114.234375 121.425781 114.234375 C 121.425781 114.234375 111.503906 113.042969 106.46875 108.507812 C 101.902344 104.394531 100.261719 106.851562 99.8125 107.527344 C 99.105469 108.597656 97.808594 112.042969 97.597656 115.308594 " fill-opacity="1" fill-rule="nonzero"/><path fill="#333333" d="M 105.089844 116.179688 C 104.730469 121.082031 102.855469 124.941406 100.898438 124.796875 C 98.941406 124.65625 97.648438 120.566406 98.003906 115.664062 C 98.363281 110.761719 100.242188 106.902344 102.199219 107.046875 C 104.152344 107.1875 105.449219 111.277344 105.089844 116.179688 " fill-opacity="1" fill-rule="nonzero"/><path fill="#ed9300" d="M 101.957031 113.035156 C 101.53125 113.035156 100.859375 114.101562 100.753906 115.507812 C 100.652344 116.914062 101.046875 117.824219 101.585938 118.132812 L 104.628906 119.316406 C 104.851562 118.347656 105.011719 117.292969 105.089844 116.179688 C 105.191406 114.820312 105.164062 113.519531 105.027344 112.351562 L 101.957031 113.035156 " fill-opacity="1" fill-rule="nonzero"/><path fill="#333333" d="M 115.46875 119.746094 C 115.46875 119.746094 115.316406 121.714844 115.160156 123.175781 C 114.996094 124.722656 114.835938 125.765625 115.367188 125.828125 C 116.40625 125.953125 116.984375 125.5 117.800781 119.605469 L 115.46875 119.746094 " fill-opacity="1" fill-rule="nonzero"/><path fill="#2f8ac2" d="M 105.867188 118.910156 C 107.03125 113.023438 105.175781 108.621094 105.15625 108.570312 C 105.089844 108.425781 104.921875 108.359375 104.777344 108.421875 C 104.628906 108.484375 104.5625 108.652344 104.628906 108.800781 C 104.652344 108.855469 107.058594 114.5625 104.515625 121.652344 C 104.507812 121.667969 103.558594 124.34375 102.136719 125.230469 C 103.417969 124.792969 104.871094 123.550781 106.644531 122.246094 C 109.957031 119.808594 121.511719 120.371094 121.511719 120.371094 C 121.511719 120.371094 122.246094 119.792969 122.558594 118.332031 C 121.53125 118.242188 111.21875 117.363281 105.867188 118.910156 " fill-opacity="1" fill-rule="nonzero"/><path fill="#085d77" d="M 119.246094 120.320312 C 119.464844 120.320312 119.667969 120.324219 119.863281 120.324219 C 121.050781 117.316406 120.429688 115.054688 119.976562 114.011719 C 119.761719 113.972656 119.527344 113.929688 119.273438 113.882812 C 119.625 114.546875 120.652344 116.960938 119.246094 120.320312 " fill-opacity="1" fill-rule="nonzero"/><path fill="#d37301" d="M 104.628906 119.316406 C 104.84375 118.375 105 117.347656 105.082031 116.273438 L 103.125 116.519531 C 103.285156 114.4375 102.546875 113.707031 102.546875 113.707031 C 102.546875 113.707031 103.175781 115.335938 102.621094 116.917969 C 102.378906 117.597656 102.070312 117.847656 101.871094 117.9375 C 101.746094 117.992188 104.628906 119.316406 104.628906 119.316406 " fill-opacity="1" fill-rule="nonzero"/><path fill="#f27461" d="M 116.503906 122.578125 C 116.242188 122.976562 117.039062 123.5 117.039062 123.5 L 116.902344 124.121094 C 116.566406 125.472656 115.726562 125.492188 115.328125 125.230469 C 114.929688 124.96875 115.085938 124.527344 115.085938 124.527344 C 115.085938 124.527344 116.25 124.695312 116.183594 124.367188 C 116.164062 124.269531 116.03125 124.171875 115.847656 124.089844 C 116.15625 124.023438 116.441406 123.945312 116.378906 123.636719 C 116.359375 123.539062 116.242188 123.480469 116.105469 123.441406 C 116.148438 123.40625 116.183594 123.371094 116.214844 123.324219 C 116.261719 123.25 116.285156 123.15625 116.246094 123.078125 C 116.230469 123.042969 116.199219 123.015625 116.167969 122.996094 C 116.136719 122.972656 116.101562 122.953125 116.070312 122.9375 L 116.125 122.871094 C 116.171875 122.785156 116.167969 122.671875 116.101562 122.601562 C 116.074219 122.578125 116.042969 122.558594 116.007812 122.539062 C 115.765625 122.429688 115.492188 122.414062 115.230469 122.414062 C 115.113281 122.417969 115 122.417969 114.886719 122.445312 C 114.816406 122.464844 114.734375 122.5 114.699219 122.570312 C 114.664062 122.644531 114.714844 122.738281 114.730469 122.8125 L 114.726562 122.847656 L 114.703125 122.875 C 114.671875 122.894531 114.636719 122.902344 114.601562 122.914062 C 114.566406 122.929688 114.535156 122.953125 114.523438 122.988281 C 114.515625 123.015625 114.523438 123.046875 114.53125 123.078125 C 114.554688 123.140625 114.582031 123.203125 114.617188 123.257812 L 114.636719 123.324219 L 114.613281 123.359375 C 114.558594 123.410156 114.46875 123.417969 114.417969 123.472656 C 114.386719 123.511719 114.378906 123.566406 114.390625 123.617188 C 114.398438 123.664062 114.421875 123.722656 114.449219 123.765625 C 114.476562 123.804688 114.511719 123.828125 114.515625 123.882812 L 114.503906 123.941406 C 114.484375 123.980469 114.421875 124 114.394531 124.042969 C 114.132812 124.441406 114.800781 126.027344 114.800781 126.027344 C 114.800781 126.027344 114.480469 127.816406 115.996094 126.816406 C 117.40625 125.886719 117.703125 123.367188 117.632812 123.035156 C 117.566406 122.703125 116.769531 122.179688 116.503906 122.578125 " fill-opacity="1" fill-rule="nonzero"/><path fill="#f27461" d="M 160.234375 170.464844 C 160.234375 170.464844 160.359375 172.488281 159.289062 173.003906 C 158.253906 173.5 158.675781 174.300781 158.789062 174.863281 C 158.839844 175.105469 158.730469 175.351562 158.46875 175.167969 C 158.019531 174.859375 157.890625 174.210938 157.695312 173.738281 L 157.671875 173.71875 L 157.660156 173.753906 C 157.746094 174.210938 157.957031 174.636719 158.027344 175.089844 C 158.058594 175.304688 158.160156 175.871094 157.839844 175.9375 C 157.523438 176 157.316406 175.441406 157.234375 175.230469 C 157.144531 175.019531 157.0625 174.796875 157.007812 174.570312 C 156.9375 174.296875 156.914062 174.011719 156.847656 173.730469 C 156.769531 173.84375 156.792969 173.996094 156.816406 174.128906 C 156.898438 174.558594 156.996094 174.972656 156.992188 175.410156 C 156.988281 175.621094 156.992188 176.109375 156.714844 176.167969 C 156.371094 176.238281 156.222656 175.59375 156.164062 175.371094 C 156.019531 174.824219 156.007812 174.273438 155.925781 173.714844 C 155.847656 173.8125 155.839844 173.945312 155.839844 174.070312 C 155.839844 174.359375 155.910156 174.664062 155.882812 174.945312 C 155.871094 175.0625 155.855469 175.464844 155.695312 175.496094 C 155.277344 175.582031 155.070312 174.585938 155.015625 174.335938 C 154.867188 173.636719 154.839844 172.980469 155.371094 172.4375 L 155.402344 172.40625 C 155.601562 172.207031 155.835938 172.046875 156.070312 171.890625 C 156.34375 171.710938 156.035156 171.699219 155.867188 171.679688 C 155.570312 171.644531 155.144531 171.539062 155.390625 171.164062 C 155.839844 170.484375 158.207031 170.585938 158.652344 169.90625 C 159.101562 169.230469 160.234375 170.464844 160.234375 170.464844 " fill-opacity="1" fill-rule="nonzero"/><path fill="#333333" d="M 153.417969 220.949219 C 153.417969 220.949219 152.5625 221.121094 152.570312 222.609375 C 152.578125 224.09375 152.898438 230.050781 155.519531 229.738281 C 159.007812 229.320312 156.933594 224.660156 155.140625 222.082031 C 153.875 220.257812 153.417969 220.949219 153.417969 220.949219 " fill-opacity="1" fill-rule="nonzero"/><path fill="#1a1a1a" d="M 155.925781 223.328125 C 156.410156 224.707031 157.207031 227.234375 155.21875 226.824219 C 153.046875 226.378906 153.25 221.578125 153.25 221.578125 L 153.148438 221.082031 C 152.898438 221.261719 152.566406 221.679688 152.570312 222.609375 C 152.578125 224.09375 152.898438 230.050781 155.519531 229.738281 C 158.496094 229.382812 157.417969 225.933594 155.925781 223.328125 " fill-opacity="1" fill-rule="nonzero"/><path fill="#e55857" d="M 109.683594 214.414062 L 109.523438 204.769531 L 107.375 204.878906 L 108.414062 214.136719 L 109.683594 214.414062 " fill-opacity="1" fill-rule="nonzero"/><path fill="#1a1a1a" d="M 109.734375 215.335938 C 110.113281 215.351562 110.398438 214.984375 110.277344 214.628906 C 110.09375 214.09375 109.59375 213.375 108.257812 212.867188 C 105.859375 211.960938 101.808594 211.011719 101.144531 211.757812 C 100.75 212.195312 100.46875 212.933594 100.285156 213.585938 C 100.09375 214.253906 100.574219 214.921875 101.269531 214.953125 L 109.734375 215.335938 " fill-opacity="1" fill-rule="nonzero"/><path fill="#333333" d="M 101.476562 213.492188 C 100.621094 213.234375 100.683594 212.589844 100.878906 212.121094 C 100.960938 211.984375 101.046875 211.863281 101.144531 211.757812 C 101.800781 211.023438 105.738281 211.933594 108.152344 212.828125 C 110.980469 214.46875 102.828125 213.898438 101.476562 213.492188 " fill-opacity="1" fill-rule="nonzero"/><path fill="#f27461" d="M 154.382812 221.554688 L 152.855469 213.03125 L 150.75 213.480469 L 153.089844 221.851562 C 153.183594 222.191406 153.527344 222.398438 153.871094 222.320312 C 154.21875 222.242188 154.445312 221.90625 154.382812 221.554688 " fill-opacity="1" fill-rule="nonzero"/><path fill="#562f5e" d="M 152.890625 163.957031 C 153.210938 165.046875 153.226562 166.207031 152.933594 167.300781 C 151.816406 171.472656 149.007812 182.09375 148.941406 183.484375 C 148.859375 185.226562 154.625 218.996094 154.625 218.996094 L 152.085938 219.496094 L 138.21875 173.210938 C 138.21875 173.210938 112.867188 177.667969 112.15625 178.820312 C 111.441406 179.96875 110.082031 210.851562 110.082031 210.851562 L 107.644531 210.9375 C 107.644531 210.9375 103.722656 174.960938 104.972656 173.386719 C 106.222656 171.816406 135.761719 162.195312 135.761719 162.195312 L 151.40625 158.894531 L 152.890625 163.957031 " fill-opacity="1" fill-rule="nonzero"/><path fill="#481f52" d="M 152.890625 163.957031 L 151.40625 158.894531 L 135.761719 162.195312 C 135.761719 162.195312 106.222656 171.816406 104.972656 173.386719 C 103.722656 174.960938 107.644531 210.9375 107.644531 210.9375 L 110.082031 210.851562 C 110.082031 210.851562 111.441406 179.96875 112.15625 178.820312 C 112.824219 177.734375 135.414062 173.707031 137.980469 173.253906 L 137.214844 169.535156 C 137.214844 169.535156 137.203125 166.5625 141.890625 166.199219 C 146.578125 165.832031 148.957031 173.078125 147.578125 183.773438 L 153.820312 219.15625 L 154.625 218.996094 C 154.625 218.996094 148.859375 185.226562 148.941406 183.484375 C 149.007812 182.09375 151.816406 171.472656 152.933594 167.300781 C 153.226562 166.207031 153.210938 165.046875 152.890625 163.957031 " fill-opacity="1" fill-rule="nonzero"/><path fill="#371443" d="M 137.097656 168.480469 C 137.058594 168.320312 136.902344 168.230469 136.746094 168.261719 C 136.589844 168.300781 136.492188 168.457031 136.527344 168.613281 L 137.632812 173.316406 C 137.976562 173.253906 138.175781 173.21875 138.210938 173.214844 L 137.097656 168.480469 " fill-opacity="1" fill-rule="nonzero"/><path fill="#f0bd78" d="M 138.675781 120.371094 C 138.675781 120.371094 135.003906 120.898438 130.75 121.851562 C 129.039062 122.234375 127.472656 123.054688 126.128906 124.207031 C 123.121094 126.785156 120.515625 135.523438 118.769531 135.585938 C 115.398438 135.710938 116.449219 129.066406 117.144531 126.25 L 114.441406 125.925781 C 111.628906 131.015625 107.636719 150.859375 121.414062 147.058594 C 123.136719 146.585938 124.617188 145.523438 127.144531 143.542969 C 127.144531 143.542969 130.585938 159.546875 132.292969 162.867188 C 132.292969 162.867188 144.339844 165.234375 153.449219 161.671875 C 153.449219 161.671875 154.285156 151.460938 155.378906 145.375 L 157.96875 148.460938 C 159.464844 150.363281 160.3125 152.699219 160.363281 155.117188 C 160.441406 158.816406 160.109375 164.542969 157.910156 169.804688 C 157.910156 169.804688 158.605469 171.089844 160.746094 171.53125 C 160.746094 171.53125 172.484375 155.332031 170.203125 146.148438 C 167.921875 136.96875 160.855469 120.179688 138.675781 120.371094 " fill-opacity="1" fill-rule="nonzero"/><path fill="#e9ad68" d="M 149.15625 136.398438 C 154.542969 152.585938 144.015625 160.015625 138.269531 160.605469 C 133.441406 161.101562 130.671875 156.644531 129.914062 155.214844 C 130.796875 158.625 131.679688 161.675781 132.292969 162.867188 C 132.292969 162.867188 144.339844 165.234375 153.449219 161.671875 C 153.449219 161.671875 154.257812 151.804688 155.328125 145.6875 C 152.523438 142.289062 149.15625 136.398438 149.15625 136.398438 " fill-opacity="1" fill-rule="nonzero"/><path fill="#cf873f" d="M 149.347656 136.007812 C 149.289062 135.863281 149.121094 135.792969 148.972656 135.851562 C 148.828125 135.910156 148.757812 136.078125 148.816406 136.226562 C 150.542969 140.449219 154.886719 145.660156 155.257812 146.101562 C 155.296875 145.851562 155.339844 145.613281 155.378906 145.375 C 155.378906 145.375 151.078125 140.242188 149.347656 136.007812 " fill-opacity="1" fill-rule="nonzero"/><path fill="#e9ad68" d="M 128.207031 122.792969 C 127.46875 123.179688 126.773438 123.65625 126.128906 124.207031 C 123.121094 126.785156 120.515625 135.523438 118.769531 135.585938 C 115.398438 135.710938 116.449219 129.066406 117.144531 126.25 L 114.441406 125.925781 C 111.628906 131.015625 107.636719 150.859375 121.414062 147.058594 C 123.128906 146.589844 124.609375 145.53125 127.117188 143.566406 C 125.96875 137.597656 124.351562 126.054688 128.207031 122.792969 " fill-opacity="1" fill-rule="nonzero"/><path fill="#cf873f" d="M 125.992188 127.761719 C 125.839844 127.726562 125.683594 127.828125 125.652344 127.984375 C 125.605469 128.203125 124.539062 133.503906 126.640625 143.933594 C 126.804688 143.808594 126.972656 143.679688 127.144531 143.542969 L 127.144531 143.546875 L 127.148438 143.542969 C 125.152344 133.425781 126.203125 128.152344 126.214844 128.101562 C 126.246094 127.945312 126.148438 127.792969 125.992188 127.761719 " fill-opacity="1" fill-rule="nonzero"/><path fill="#cf873f" d="M 162.199219 169.71875 L 162.125 169.722656 C 160.660156 169.640625 159.070312 168.460938 158.453125 167.960938 C 158.332031 167.859375 158.3125 167.679688 158.414062 167.554688 C 158.515625 167.433594 158.695312 167.414062 158.816406 167.515625 C 159.265625 167.878906 160.824219 169.078125 162.15625 169.152344 C 162.3125 169.160156 162.433594 169.296875 162.425781 169.453125 C 162.417969 169.585938 162.320312 169.695312 162.199219 169.71875 " fill-opacity="1" fill-rule="nonzero"/><path fill="#cf873f" d="M 116.667969 129.183594 C 116.613281 129.195312 116.554688 129.191406 116.496094 129.164062 C 115.070312 128.539062 113.4375 128.65625 113.421875 128.65625 C 113.265625 128.667969 113.125 128.550781 113.113281 128.390625 C 113.101562 128.234375 113.21875 128.09375 113.378906 128.082031 C 113.449219 128.078125 115.171875 127.957031 116.726562 128.640625 C 116.871094 128.703125 116.9375 128.871094 116.875 129.019531 C 116.835938 129.105469 116.757812 129.164062 116.667969 129.183594 " fill-opacity="1" fill-rule="nonzero"/><path fill="#d8d8d8" d="M 96.179688 108.300781 C 96.179688 108.300781 88.976562 101.949219 88.09375 103.457031 C 87.371094 104.699219 96.179688 108.300781 96.179688 108.300781 " fill-opacity="1" fill-rule="nonzero"/><path fill="#d8d8d8" d="M 96 124.644531 C 96 124.644531 89.785156 126.210938 90.421875 127.433594 C 90.949219 128.433594 96 124.644531 96 124.644531 " fill-opacity="1" fill-rule="nonzero"/><path fill="#d8d8d8" d="M 89.703125 115.421875 C 89.703125 115.421875 75.683594 112.210938 75.816406 113.347656 C 75.980469 114.773438 89.703125 115.421875 89.703125 115.421875 " fill-opacity="1" fill-rule="nonzero"/><path fill="#d8d8d8" d="M 94.988281 118.984375 C 94.988281 118.984375 80.722656 119.371094 81.101562 121.078125 C 81.296875 121.949219 94.988281 118.984375 94.988281 118.984375 " fill-opacity="1" fill-rule="nonzero"/><path fill="#efefef" d="M 145.789062 120.953125 C 143.609375 120.554688 141.246094 120.347656 138.675781 120.371094 C 138.675781 120.371094 136.238281 120.722656 133.039062 121.363281 C 132.734375 123.796875 133.332031 129.148438 136.636719 132.722656 C 136.636719 132.722656 144.691406 126.433594 145.789062 120.953125 " fill-opacity="1" fill-rule="nonzero"/><path fill="#bababa" d="M 135.699219 118.84375 C 135.699219 118.84375 139.125 117.507812 142.867188 118.558594 L 142.164062 121.28125 L 135.667969 122.59375 L 135.699219 118.84375 " fill-opacity="1" fill-rule="nonzero"/><path fill="#562f5e" d="M 132.648438 110.074219 C 132.648438 110.074219 129.226562 112.628906 128.164062 110.804688 C 127.101562 108.976562 131.191406 106.105469 131.191406 106.105469 C 131.191406 106.105469 127.328125 106.621094 127.554688 104.589844 C 127.777344 102.554688 131.324219 100.859375 135.824219 101.738281 C 135.824219 101.738281 134.121094 99.585938 135.300781 99.164062 C 136.480469 98.742188 141.617188 100.910156 142.773438 105.523438 C 142.773438 105.523438 142.992188 104.128906 143.636719 104.242188 C 144.277344 104.351562 145.871094 107.789062 142.203125 112.160156 C 142.203125 112.160156 139.621094 113.863281 137.804688 112.460938 C 135.988281 111.058594 132.648438 110.074219 132.648438 110.074219 " fill-opacity="1" fill-rule="nonzero"/><path fill="#481f52" d="M 137.804688 112.460938 C 139.621094 113.863281 142.203125 112.160156 142.203125 112.160156 C 143.171875 111.003906 143.773438 109.914062 144.125 108.933594 C 141.925781 112.605469 140.730469 106.371094 140.730469 106.371094 C 140.730469 106.371094 140.617188 107.867188 139.117188 107.539062 C 137.617188 107.210938 138.167969 104.214844 138.167969 104.214844 C 138.167969 104.214844 136.546875 106.777344 132.359375 108.148438 C 129 109.246094 129.679688 107.664062 130.082031 106.996094 C 128.957031 107.992188 127.476562 109.617188 128.164062 110.804688 C 129.226562 112.628906 132.648438 110.074219 132.648438 110.074219 C 132.648438 110.074219 135.988281 111.058594 137.804688 112.460938 " fill-opacity="1" fill-rule="nonzero"/><path fill="#f27461" d="M 140.472656 114.511719 L 141.917969 122.929688 L 137.9375 124.976562 L 135.816406 123.699219 L 136.601562 117.382812 L 140.472656 114.511719 " fill-opacity="1" fill-rule="nonzero"/><path fill="#e55857" d="M 136.199219 120.628906 C 137.164062 120.335938 140.511719 119.066406 140.253906 115.578125 L 136.59375 117.433594 L 136.199219 120.628906 " fill-opacity="1" fill-rule="nonzero"/><path fill="#f27461" d="M 132.566406 109.433594 C 132.566406 109.433594 131.128906 118.210938 135.417969 118.234375 C 139.703125 118.253906 140.578125 115.476562 140.578125 115.476562 C 140.578125 115.476562 142.503906 116.125 143.046875 114.628906 C 143.589844 113.132812 143.171875 110.882812 140.488281 111.9375 C 140.488281 111.9375 137.1875 107.101562 132.566406 109.433594 " fill-opacity="1" fill-rule="nonzero"/><path fill="#371443" d="M 140.390625 112.011719 C 140.3125 112.011719 140.238281 111.976562 140.183594 111.910156 C 138.488281 109.816406 136.582031 108.871094 134.511719 109.09375 C 132.957031 109.265625 131.878906 110.0625 131.871094 110.070312 C 131.753906 110.160156 131.582031 110.136719 131.496094 110.019531 C 131.40625 109.902344 131.429688 109.734375 131.546875 109.644531 C 131.59375 109.609375 132.734375 108.757812 134.425781 108.566406 C 137.257812 108.246094 139.347656 110.023438 140.601562 111.574219 C 140.695312 111.691406 140.675781 111.859375 140.5625 111.949219 C 140.511719 111.992188 140.449219 112.011719 140.390625 112.011719 " fill-opacity="1" fill-rule="nonzero"/><path fill="#ffffff" d="M 134.847656 115.652344 C 134.847656 115.652344 136.414062 115.550781 138.574219 114.082031 C 138.574219 114.082031 137.808594 117.132812 136.324219 117.039062 C 135.566406 116.992188 134.847656 115.652344 134.847656 115.652344 " fill-opacity="1" fill-rule="nonzero"/><path fill="#d6d6d6" d="M 142.867188 118.902344 C 142.867188 118.902344 145.214844 123.695312 140.054688 128.765625 C 140.054688 128.765625 139.054688 125.691406 138.035156 125.339844 L 136.613281 132.148438 L 137.355469 124.996094 C 137.355469 124.996094 135.980469 126.007812 135.628906 127.707031 C 135.628906 127.707031 132.929688 123.59375 135.007812 119.859375 L 137.195312 123.800781 L 138.214844 124.148438 L 142.867188 118.902344 " fill-opacity="1" fill-rule="nonzero"/><path fill="#efefef" d="M 143.1875 121.289062 C 143.1875 121.289062 143.207031 118.902344 142.867188 118.558594 C 142.867188 118.558594 139.761719 122.96875 137.703125 123.972656 C 137.703125 123.972656 140.425781 125.019531 140.40625 127.40625 C 140.40625 127.40625 143.164062 124.019531 143.1875 121.289062 " fill-opacity="1" fill-rule="nonzero"/><path fill="#efefef" d="M 135.699219 118.84375 C 135.699219 118.84375 135.671875 122.25 137.703125 123.972656 C 137.703125 123.972656 135.992188 124.640625 135.636719 126.683594 C 135.636719 126.683594 133.292969 121.210938 135.699219 118.84375 " fill-opacity="1" fill-rule="nonzero"/><path fill="#b4ced6" d="M 350.488281 295.964844 C 350.488281 299.160156 332.199219 301.75 309.632812 301.75 C 287.070312 301.75 268.777344 299.160156 268.777344 295.964844 C 268.777344 292.769531 287.070312 290.175781 309.632812 290.175781 C 332.199219 290.175781 350.488281 292.769531 350.488281 295.964844 " fill-opacity="1" fill-rule="nonzero"/><path fill="#e55857" d="M 295.0625 161.207031 C 295.0625 161.207031 297.285156 158.316406 296.753906 157.8125 C 296.214844 157.304688 295.425781 158.949219 295.167969 158.511719 C 294.910156 158.078125 296.144531 155 295.382812 154.511719 C 294.738281 154.09375 294.324219 157.484375 294.136719 157.363281 C 293.945312 157.238281 293.511719 154.324219 293.046875 154.132812 C 292.578125 153.9375 292.378906 154.996094 293.011719 156.851562 C 293.011719 156.851562 293.25 157.652344 293.113281 157.617188 C 292.972656 157.582031 291.753906 155.128906 291.40625 155.335938 C 291.058594 155.539062 291.332031 156.203125 292.328125 158.078125 C 292.328125 158.078125 292.535156 158.425781 292.34375 158.304688 C 292.152344 158.183594 290.707031 156.335938 290.632812 157.203125 C 290.558594 158.070312 293.691406 161.96875 293.691406 161.96875 L 295.0625 161.207031 " fill-opacity="1" fill-rule="nonzero"/><path fill="#1279a9" d="M 300.226562 187.960938 C 301.191406 187.648438 302.164062 187.335938 303.132812 187.027344 C 307.78125 185.535156 312.410156 183.949219 316.691406 181.6875 C 314.003906 181.367188 311.390625 180.507812 308.480469 178.824219 C 303.578125 175.996094 302.445312 174.507812 302.445312 174.507812 C 299.65625 169.953125 295.273438 161.253906 295.273438 161.253906 C 293.964844 160.925781 293.25 161.660156 293.25 161.660156 C 293.25 161.660156 291.5 168.167969 296.988281 181.824219 C 297.917969 184.136719 299.027344 186.171875 300.226562 187.960938 " fill-opacity="1" fill-rule="nonzero"/><g clip-path="url(#0118591a11)"><path fill="#f7f7f7" d="M 260.285156 178.378906 C 291.441406 166.886719 309.015625 160.894531 309.019531 160.183594 C 309.023438 158.621094 275.78125 55.78125 275.78125 55.78125 C 275.78125 55.78125 256.789062 63.015625 224.796875 76.234375 C 225.023438 76.289062 254.566406 164.425781 260.285156 178.378906 " fill-opacity="1" fill-rule="nonzero"/></g><path fill="#479bdb" d="M 269.910156 93.792969 L 262.054688 72.789062 L 243.773438 80.957031 L 251.082031 102.433594 Z M 261.023438 76.699219 L 266.859375 92.21875 L 252.109375 98.523438 L 246.511719 82.613281 L 261.023438 76.699219 " fill-opacity="1" fill-rule="nonzero"/><path fill="#20853d" d="M 267.414062 89.433594 L 256.324219 88.269531 L 260.5625 82.367188 L 258.199219 78.726562 L 250.808594 87.871094 L 251.894531 92.257812 L 266.429688 94.617188 C 266.863281 92.910156 267.203125 91.183594 267.414062 89.433594 " fill-opacity="1" fill-rule="nonzero"/><path fill="#d8d8d8" d="M 287.402344 140.925781 L 273.875 100.792969 L 271.058594 102.1875 L 284.652344 141.835938 C 285.578125 141.558594 286.492188 141.25 287.402344 140.925781 " fill-opacity="1" fill-rule="nonzero"/><path fill="#d8d8d8" d="M 286.875 148.308594 L 290 157.425781 C 290.828125 156.96875 291.675781 156.554688 292.542969 156.171875 L 289.515625 147.1875 C 288.632812 147.558594 287.75 147.925781 286.875 148.308594 " fill-opacity="1" fill-rule="nonzero"/><path fill="#d8d8d8" d="M 271.621094 123.707031 L 265.253906 104.714844 L 262.457031 106.089844 L 268.75 124.5625 C 269.707031 124.28125 270.667969 124.003906 271.621094 123.707031 " fill-opacity="1" fill-rule="nonzero"/><path fill="#d8d8d8" d="M 273.773438 130.292969 C 272.839844 130.582031 271.90625 130.878906 270.96875 131.15625 L 279.945312 157.417969 C 280.808594 157.039062 281.679688 156.691406 282.5625 156.355469 L 273.773438 130.292969 " fill-opacity="1" fill-rule="nonzero"/><path fill="#d8d8d8" d="M 269.019531 145.832031 L 256.628906 108.636719 L 253.855469 109.988281 L 266.296875 146.78125 C 267.195312 146.433594 268.105469 146.136719 269.019531 145.832031 " fill-opacity="1" fill-rule="nonzero"/><path fill="#d8d8d8" d="M 273.070312 60.109375 C 269.328125 61.164062 233.789062 75.65625 229.0625 77.609375 L 262.238281 174.359375 L 304.628906 157.863281 C 303.683594 154.675781 297.058594 132.304688 290.132812 109.945312 C 285.761719 95.835938 282.128906 84.496094 279.332031 76.234375 C 274.878906 63.0625 273.488281 60.535156 273.070312 60.109375 Z M 227.960938 77.113281 L 228.34375 76.953125 C 230.5 76.0625 270.175781 59.835938 273.007812 59.214844 C 273.515625 59.105469 274.007812 59.351562 275.699219 63.535156 C 276.714844 66.054688 278.070312 69.789062 279.71875 74.632812 C 282.496094 82.777344 286.164062 94.179688 290.613281 108.523438 C 298.1875 132.9375 305.515625 157.75 305.585938 158 L 305.699219 158.382812 L 261.707031 175.519531 L 261.554688 175.082031 L 227.960938 77.113281 " fill-opacity="1" fill-rule="nonzero"/><path fill="#f27461" d="M 276.859375 161.511719 C 276.859375 161.511719 279.082031 158.621094 278.550781 158.113281 C 278.011719 157.609375 277.222656 159.25 276.964844 158.816406 C 276.707031 158.378906 277.941406 155.304688 277.179688 154.8125 C 276.535156 154.394531 276.125 157.789062 275.933594 157.664062 C 275.742188 157.542969 275.308594 154.628906 274.84375 154.433594 C 274.375 154.242188 274.179688 155.296875 274.808594 157.15625 C 274.808594 157.15625 275.046875 157.953125 274.910156 157.917969 C 274.769531 157.882812 273.554688 155.433594 273.203125 155.636719 C 272.855469 155.84375 273.128906 156.503906 274.125 158.382812 C 274.125 158.382812 274.332031 158.730469 274.140625 158.605469 C 273.949219 158.484375 272.503906 156.640625 272.429688 157.503906 C 272.355469 158.371094 275.488281 162.273438 275.488281 162.273438 L 276.859375 161.511719 " fill-opacity="1" fill-rule="nonzero"/><path fill="#f27461" d="M 302.046875 286.96875 L 303.0625 292.125 L 304.171875 291.617188 L 303.464844 286.566406 L 302.046875 286.96875 " fill-opacity="1" fill-rule="nonzero"/><path fill="#582c5f" d="M 300.546875 294.492188 C 300.546875 294.492188 298.074219 293.96875 297.382812 295.539062 C 296.5625 297.402344 298.765625 297.765625 300.078125 297.667969 C 301.390625 297.570312 302.386719 297.394531 303.730469 294.964844 C 305.066406 292.53125 305.636719 290.664062 304.117188 290.679688 C 302.597656 290.691406 300.546875 294.492188 300.546875 294.492188 " fill-opacity="1" fill-rule="nonzero"/><path fill="#4a1c53" d="M 304.117188 290.679688 C 302.597656 290.691406 300.546875 294.492188 300.546875 294.492188 L 300.53125 294.488281 C 300.265625 294.988281 299.976562 295.597656 299.925781 295.964844 C 299.828125 296.652344 297.171875 296.523438 297.679688 295.085938 C 297.5625 295.214844 297.460938 295.363281 297.382812 295.539062 C 296.5625 297.402344 298.765625 297.765625 300.078125 297.667969 C 301.390625 297.570312 302.386719 297.394531 303.730469 294.964844 C 305.066406 292.53125 305.636719 290.664062 304.117188 290.679688 " fill-opacity="1" fill-rule="nonzero"/><path fill="#e55857" d="M 316.8125 286.96875 L 317.828125 292.125 L 318.9375 291.617188 L 318.230469 286.566406 L 316.8125 286.96875 " fill-opacity="1" fill-rule="nonzero"/><path fill="#582c5f" d="M 315.3125 294.492188 C 315.3125 294.492188 312.839844 293.96875 312.144531 295.539062 C 311.328125 297.402344 313.53125 297.765625 314.84375 297.667969 C 316.152344 297.570312 317.15625 297.394531 318.492188 294.964844 C 319.832031 292.53125 320.402344 290.664062 318.882812 290.679688 C 317.363281 290.691406 315.3125 294.492188 315.3125 294.492188 " fill-opacity="1" fill-rule="nonzero"/><path fill="#4a1c53" d="M 318.882812 290.679688 C 317.363281 290.691406 315.3125 294.492188 315.3125 294.492188 L 315.292969 294.488281 C 315.03125 294.988281 314.742188 295.597656 314.691406 295.964844 C 314.59375 296.652344 311.933594 296.523438 312.445312 295.085938 C 312.328125 295.214844 312.226562 295.363281 312.144531 295.539062 C 311.328125 297.402344 313.53125 297.765625 314.84375 297.667969 C 316.152344 297.570312 317.15625 297.394531 318.492188 294.964844 C 319.832031 292.53125 320.402344 290.664062 318.882812 290.679688 " fill-opacity="1" fill-rule="nonzero"/><path fill="#562f5e" d="M 320.65625 220.070312 L 302.152344 218.554688 C 302.152344 218.554688 293.351562 250.386719 294.160156 254.53125 C 294.96875 258.675781 301.746094 288.183594 301.746094 288.183594 L 304.375 287.777344 C 304.375 287.777344 299.46875 255.085938 299.976562 253.265625 C 300.25 252.289062 304.925781 242.753906 309.191406 234.15625 C 309.816406 241.753906 310.492188 250.046875 310.644531 252.410156 C 310.949219 257.054688 316.507812 287.878906 316.507812 287.878906 L 318.9375 287.878906 C 318.9375 287.878906 317.015625 257.5625 316.710938 255.640625 C 316.410156 253.722656 320.65625 220.070312 320.65625 220.070312 " fill-opacity="1" fill-rule="nonzero"/><path fill="#4298dd" d="M 310.460938 231.527344 L 310.484375 231.542969 L 310.5 231.511719 Z M 310.460938 231.527344 " fill-opacity="1" fill-rule="nonzero"/><path fill="#481f52" d="M 302.152344 218.554688 C 302.152344 218.554688 296.253906 239.882812 294.558594 249.894531 C 295.902344 244.414062 300.503906 228.917969 304.375 225.121094 C 309.734375 219.867188 320.355469 225.222656 315.296875 229.0625 C 315.007812 229.285156 311.25 230.480469 311.25 230.480469 L 309.199219 234.285156 C 309.824219 241.847656 310.492188 250.0625 310.644531 252.410156 C 310.949219 257.054688 316.507812 288.183594 316.507812 288.183594 L 318.9375 287.878906 C 318.9375 287.878906 317.015625 257.5625 316.710938 255.640625 C 316.410156 253.722656 320.65625 220.070312 320.65625 220.070312 L 302.152344 218.554688 " fill-opacity="1" fill-rule="nonzero"/><path fill="#371443" d="M 315.585938 228.925781 C 315.535156 228.796875 315.390625 228.730469 315.257812 228.777344 L 311.023438 230.328125 L 310.976562 230.414062 C 302.175781 247.804688 299.515625 254.066406 299.492188 254.128906 L 299.464844 254.191406 L 303.871094 287.761719 C 303.878906 287.792969 303.886719 287.824219 303.902344 287.851562 C 304.058594 287.828125 304.210938 287.804688 304.367188 287.78125 C 304.375 287.753906 304.378906 287.726562 304.371094 287.695312 L 299.984375 254.261719 C 300.277344 253.574219 303.089844 247.117188 311.378906 230.730469 L 315.433594 229.25 C 315.566406 229.203125 315.632812 229.058594 315.585938 228.925781 " fill-opacity="1" fill-rule="nonzero"/><path fill="#f27461" d="M 321.363281 172.777344 L 315.398438 183.488281 L 311.25 181.566406 L 313.625 176.796875 C 313.625 176.796875 311.296875 176.652344 310.242188 174.898438 C 309.300781 173.335938 312.871094 168.226562 312.871094 168.226562 L 321.363281 172.777344 " fill-opacity="1" fill-rule="nonzero"/><path fill="#479bdb" d="M 326.320312 197.332031 C 326.292969 197.632812 324.800781 210.46875 323.085938 219.5625 C 323.085938 219.5625 312.972656 226.234375 299.320312 218.25 L 295.375 198.949219 C 295.375 198.949219 284.652344 194.664062 279.296875 182.074219 C 273.53125 168.53125 275.148438 161.964844 275.148438 161.964844 C 275.148438 161.964844 275.855469 161.253906 277.171875 161.558594 C 277.171875 161.558594 281.722656 170.148438 284.605469 174.644531 C 284.605469 174.644531 285.765625 176.109375 290.722656 178.839844 C 296.03125 181.761719 300.320312 182.046875 305.792969 181.246094 C 309.492188 180.707031 313.636719 180.410156 316.460938 181.132812 C 322.730469 182.730469 327.28125 187.582031 326.320312 197.332031 " fill-opacity="1" fill-rule="nonzero"/><path fill="#2f8ac2" d="M 316.460938 181.132812 C 315.933594 180.996094 315.359375 180.898438 314.75 180.828125 C 316.621094 182.160156 320.453125 185.816406 320.910156 193.644531 C 321.515625 204.050781 316.863281 210.015625 308.167969 210.21875 C 301.09375 210.382812 297.535156 205.671875 296.136719 202.683594 L 299.320312 218.25 C 312.972656 226.234375 323.085938 219.5625 323.085938 219.5625 C 324.800781 210.46875 326.292969 197.632812 326.320312 197.332031 C 327.28125 187.582031 322.730469 182.730469 316.460938 181.132812 " fill-opacity="1" fill-rule="nonzero"/><path fill="#f27461" d="M 309.28125 180.839844 C 310.90625 181.5 315.230469 182.996094 318.300781 181.71875 C 317.695312 181.484375 317.132812 181.21875 316.507812 181.0625 C 314.554688 180.5625 311.914062 180.621094 309.28125 180.839844 " fill-opacity="1" fill-rule="nonzero"/><path fill="#ffb002" d="M 313.882812 169.109375 C 313.882812 169.109375 310.269531 169.601562 310.925781 165.167969 C 311.585938 160.734375 321.035156 161.636719 323.914062 166.566406 C 326.789062 171.492188 328.1875 172.234375 333.9375 172.722656 C 339.691406 173.21875 340.347656 181.59375 338.707031 184.714844 C 337.0625 187.835938 334.675781 186.6875 332.707031 190.710938 C 330.734375 194.734375 326.789062 196.625 322.351562 193.667969 C 317.914062 190.710938 318.160156 186.769531 318.242188 183.894531 C 318.324219 181.019531 318.488281 181.019531 317.5 178.882812 C 316.515625 176.75 316.019531 176.335938 316.515625 174.695312 C 316.515625 174.695312 317.828125 175.765625 318.242188 174.449219 C 318.652344 173.136719 318.570312 171.492188 316.761719 172.3125 C 316.761719 172.3125 314.875 171.574219 313.882812 169.109375 " fill-opacity="1" fill-rule="nonzero"/><path fill="#ef9500" d="M 325.023438 183.03125 C 319.074219 179.589844 323.089844 170.671875 323.089844 170.671875 C 323.089844 170.671875 317.828125 170.835938 315.609375 166.15625 C 314.136719 163.046875 315.707031 162.449219 316.925781 162.394531 C 313.992188 162 311.269531 162.863281 310.925781 165.167969 C 310.269531 169.601562 313.882812 169.109375 313.882812 169.109375 C 314.875 171.574219 316.761719 172.3125 316.761719 172.3125 C 318.570312 171.492188 318.652344 173.136719 318.242188 174.449219 C 317.828125 175.765625 316.515625 174.695312 316.515625 174.695312 C 316.019531 176.335938 316.515625 176.75 317.5 178.882812 C 318.488281 181.019531 318.324219 181.019531 318.242188 183.894531 C 318.160156 186.769531 317.914062 190.710938 322.351562 193.667969 C 326.789062 196.625 330.734375 194.734375 332.707031 190.710938 C 334.675781 186.6875 337.0625 187.835938 338.707031 184.714844 C 339.667969 182.890625 339.84375 179.265625 338.667969 176.472656 C 340.0625 182.355469 331.269531 186.644531 325.023438 183.03125 " fill-opacity="1" fill-rule="nonzero"/><path fill="#085d77" d="M 299.671875 200.464844 C 299.804688 200.464844 299.917969 200.359375 299.925781 200.226562 C 299.933594 200.089844 299.824219 199.96875 299.6875 199.960938 C 297.921875 199.859375 295.375 198.949219 295.375 198.949219 L 295.496094 199.546875 C 296.582031 199.964844 298.019531 200.371094 299.65625 200.464844 L 299.671875 200.464844 " fill-opacity="1" fill-rule="nonzero"/><path fill="#085d77" d="M 306.058594 217.730469 C 301.992188 216.855469 299.242188 215.441406 298.683594 215.140625 L 298.8125 215.777344 C 299.835938 216.289062 302.394531 217.457031 305.933594 218.222656 C 307.816406 218.628906 310.152344 218.957031 312.800781 218.957031 C 316.007812 218.957031 319.671875 218.476562 323.535156 217.074219 C 323.566406 216.882812 323.601562 216.691406 323.632812 216.5 C 316.597656 219.125 310.207031 218.625 306.058594 217.730469 " fill-opacity="1" fill-rule="nonzero"/><path fill="#e55857" d="M 316.003906 176.3125 C 315.070312 176.589844 314.285156 176.738281 313.617188 176.804688 L 312.496094 179.066406 C 315.730469 178.5 316.003906 176.3125 316.003906 176.3125 " fill-opacity="1" fill-rule="nonzero"/></svg>