<svg xmlns="http://www.w3.org/2000/svg" xmlns:xlink="http://www.w3.org/1999/xlink" width="500" zoomAndPan="magnify" viewBox="0 0 375 374.999991" height="500" preserveAspectRatio="xMidYMid meet" version="1.0"><defs><clipPath id="147613a488"><path d="M 37.5 200 L 337.5 200 L 337.5 375 L 37.5 375 Z M 37.5 200 " clip-rule="nonzero"/></clipPath></defs><rect x="-37.5" width="450" fill="#ffffff" y="-37.499999" height="449.999989" fill-opacity="1"/><rect x="-37.5" width="450" fill="#ffffff" y="-37.499999" height="449.999989" fill-opacity="1"/><rect x="-37.5" width="450" fill="#ffffff" y="-37.499999" height="449.999989" fill-opacity="1"/><path fill="#000000" d="M 275 87.5 C 275 88.933594 274.964844 90.363281 274.894531 91.792969 C 274.824219 93.222656 274.71875 94.652344 274.578125 96.078125 C 274.4375 97.5 274.261719 98.921875 274.054688 100.339844 C 273.84375 101.753906 273.597656 103.164062 273.320312 104.570312 C 273.039062 105.976562 272.726562 107.371094 272.378906 108.761719 C 272.03125 110.148438 271.648438 111.53125 271.230469 112.898438 C 270.816406 114.269531 270.367188 115.628906 269.886719 116.976562 C 269.402344 118.324219 268.886719 119.660156 268.339844 120.984375 C 267.792969 122.308594 267.210938 123.617188 266.597656 124.910156 C 265.988281 126.207031 265.34375 127.484375 264.667969 128.746094 C 263.992188 130.011719 263.289062 131.253906 262.550781 132.484375 C 261.816406 133.710938 261.050781 134.921875 260.253906 136.113281 C 259.457031 137.304688 258.632812 138.472656 257.78125 139.625 C 256.925781 140.773438 256.046875 141.902344 255.136719 143.007812 C 254.230469 144.117188 253.292969 145.199219 252.332031 146.261719 C 251.371094 147.324219 250.382812 148.359375 249.371094 149.371094 C 248.359375 150.382812 247.324219 151.371094 246.261719 152.332031 C 245.199219 153.292969 244.117188 154.230469 243.007812 155.136719 C 241.902344 156.046875 240.773438 156.925781 239.625 157.78125 C 238.472656 158.632812 237.304688 159.457031 236.113281 160.253906 C 234.921875 161.050781 233.710938 161.816406 232.484375 162.550781 C 231.253906 163.289062 230.011719 163.992188 228.746094 164.667969 C 227.484375 165.34375 226.207031 165.988281 224.910156 166.597656 C 223.617188 167.210938 222.308594 167.792969 220.984375 168.339844 C 219.660156 168.886719 218.324219 169.402344 216.976562 169.886719 C 215.628906 170.367188 214.269531 170.816406 212.898438 171.230469 C 211.53125 171.648438 210.148438 172.03125 208.761719 172.378906 C 207.371094 172.726562 205.976562 173.039062 204.570312 173.320312 C 203.164062 173.597656 201.753906 173.84375 200.339844 174.054688 C 198.921875 174.261719 197.5 174.4375 196.078125 174.578125 C 194.652344 174.71875 193.222656 174.824219 191.792969 174.894531 C 190.363281 174.964844 188.933594 175 187.5 175 C 186.066406 175 184.636719 174.964844 183.207031 174.894531 C 181.777344 174.824219 180.347656 174.71875 178.921875 174.578125 C 177.5 174.4375 176.078125 174.261719 174.660156 174.054688 C 173.246094 173.84375 171.835938 173.597656 170.429688 173.320312 C 169.023438 173.039062 167.628906 172.726562 166.238281 172.378906 C 164.851562 172.03125 163.46875 171.648438 162.101562 171.230469 C 160.730469 170.816406 159.371094 170.367188 158.023438 169.886719 C 156.671875 169.402344 155.339844 168.886719 154.015625 168.339844 C 152.691406 167.792969 151.382812 167.210938 150.089844 166.597656 C 148.792969 165.988281 147.515625 165.34375 146.253906 164.667969 C 144.988281 163.992188 143.746094 163.289062 142.515625 162.550781 C 141.289062 161.816406 140.078125 161.050781 138.886719 160.253906 C 137.695312 159.457031 136.527344 158.632812 135.375 157.78125 C 134.226562 156.925781 133.097656 156.046875 131.992188 155.136719 C 130.882812 154.230469 129.800781 153.292969 128.738281 152.332031 C 127.675781 151.371094 126.640625 150.382812 125.628906 149.371094 C 124.617188 148.359375 123.628906 147.324219 122.667969 146.261719 C 121.707031 145.199219 120.769531 144.117188 119.863281 143.007812 C 118.953125 141.902344 118.074219 140.773438 117.21875 139.625 C 116.367188 138.472656 115.542969 137.304688 114.746094 136.113281 C 113.949219 134.921875 113.183594 133.710938 112.449219 132.484375 C 111.710938 131.253906 111.007812 130.011719 110.332031 128.746094 C 109.65625 127.484375 109.011719 126.207031 108.402344 124.910156 C 107.789062 123.617188 107.207031 122.308594 106.660156 120.984375 C 106.113281 119.660156 105.597656 118.324219 105.113281 116.976562 C 104.632812 115.628906 104.183594 114.269531 103.769531 112.898438 C 103.351562 111.53125 102.96875 110.148438 102.621094 108.761719 C 102.273438 107.371094 101.960938 105.976562 101.679688 104.570312 C 101.402344 103.164062 101.15625 101.753906 100.945312 100.339844 C 100.738281 98.921875 100.5625 97.5 100.421875 96.078125 C 100.28125 94.652344 100.175781 93.222656 100.105469 91.792969 C 100.035156 90.363281 100 88.933594 100 87.5 C 100 86.066406 100.035156 84.636719 100.105469 83.207031 C 100.175781 81.777344 100.28125 80.347656 100.421875 78.921875 C 100.5625 77.5 100.738281 76.078125 100.945312 74.660156 C 101.15625 73.246094 101.402344 71.835938 101.679688 70.429688 C 101.960938 69.023438 102.273438 67.628906 102.621094 66.238281 C 102.96875 64.851562 103.351562 63.46875 103.769531 62.101562 C 104.183594 60.730469 104.632812 59.371094 105.113281 58.023438 C 105.597656 56.671875 106.113281 55.339844 106.660156 54.015625 C 107.207031 52.691406 107.789062 51.382812 108.402344 50.089844 C 109.011719 48.792969 109.65625 47.515625 110.332031 46.253906 C 111.007812 44.988281 111.710938 43.746094 112.449219 42.515625 C 113.183594 41.289062 113.949219 40.078125 114.746094 38.886719 C 115.542969 37.695312 116.367188 36.527344 117.21875 35.375 C 118.074219 34.226562 118.953125 33.097656 119.863281 31.992188 C 120.769531 30.882812 121.707031 29.800781 122.667969 28.738281 C 123.628906 27.675781 124.617188 26.640625 125.628906 25.628906 C 126.640625 24.617188 127.675781 23.628906 128.738281 22.667969 C 129.800781 21.707031 130.882812 20.769531 131.992188 19.863281 C 133.097656 18.953125 134.226562 18.074219 135.375 17.21875 C 136.527344 16.367188 137.695312 15.542969 138.886719 14.746094 C 140.078125 13.949219 141.289062 13.183594 142.515625 12.449219 C 143.746094 11.710938 144.988281 11.007812 146.253906 10.332031 C 147.515625 9.65625 148.792969 9.011719 150.089844 8.402344 C 151.382812 7.789062 152.691406 7.207031 154.015625 6.660156 C 155.339844 6.113281 156.675781 5.597656 158.023438 5.113281 C 159.371094 4.632812 160.730469 4.183594 162.101562 3.769531 C 163.46875 3.351562 164.851562 2.96875 166.238281 2.621094 C 167.628906 2.273438 169.023438 1.960938 170.429688 1.679688 C 171.835938 1.402344 173.246094 1.15625 174.660156 0.945312 C 176.078125 0.738281 177.5 0.5625 178.921875 0.421875 C 180.347656 0.28125 181.777344 0.175781 183.207031 0.105469 C 184.636719 0.0351562 186.066406 0 187.5 0 C 188.933594 0 190.363281 0.0351562 191.792969 0.105469 C 193.222656 0.175781 194.652344 0.28125 196.078125 0.421875 C 197.5 0.5625 198.921875 0.738281 200.339844 0.945312 C 201.753906 1.15625 203.164062 1.402344 204.570312 1.679688 C 205.976562 1.960938 207.371094 2.273438 208.761719 2.621094 C 210.148438 2.96875 211.53125 3.351562 212.898438 3.769531 C 214.269531 4.183594 215.628906 4.632812 216.976562 5.113281 C 218.324219 5.597656 219.660156 6.113281 220.984375 6.660156 C 222.308594 7.207031 223.617188 7.789062 224.910156 8.402344 C 226.207031 9.011719 227.484375 9.65625 228.746094 10.332031 C 230.011719 11.007812 231.253906 11.710938 232.484375 12.449219 C 233.710938 13.183594 234.921875 13.949219 236.113281 14.746094 C 237.304688 15.542969 238.472656 16.367188 239.625 17.21875 C 240.773438 18.074219 241.902344 18.953125 243.007812 19.863281 C 244.117188 20.769531 245.199219 21.707031 246.261719 22.667969 C 247.324219 23.628906 248.359375 24.617188 249.371094 25.628906 C 250.382812 26.640625 251.371094 27.675781 252.332031 28.738281 C 253.292969 29.800781 254.230469 30.882812 255.136719 31.992188 C 256.046875 33.097656 256.925781 34.226562 257.78125 35.375 C 258.632812 36.527344 259.457031 37.695312 260.253906 38.886719 C 261.050781 40.078125 261.816406 41.289062 262.550781 42.515625 C 263.289062 43.746094 263.992188 44.988281 264.667969 46.253906 C 265.34375 47.515625 265.988281 48.792969 266.597656 50.089844 C 267.210938 51.382812 267.792969 52.691406 268.339844 54.015625 C 268.886719 55.339844 269.402344 56.671875 269.886719 58.023438 C 270.367188 59.371094 270.816406 60.730469 271.230469 62.101562 C 271.648438 63.46875 272.03125 64.851562 272.378906 66.238281 C 272.726562 67.628906 273.039062 69.023438 273.320312 70.429688 C 273.597656 71.835938 273.84375 73.246094 274.054688 74.660156 C 274.261719 76.078125 274.4375 77.5 274.578125 78.921875 C 274.71875 80.347656 274.824219 81.777344 274.894531 83.207031 C 274.964844 84.636719 275 86.066406 275 87.5 Z M 275 87.5 " fill-opacity="1" fill-rule="nonzero"/><g clip-path="url(#147613a488)"><path fill="#000000" d="M 37.5 262.5 L 37.5 362.5 C 37.5 369.398438 43.101562 375 50 375 L 325 375 C 331.898438 375 337.5 369.398438 337.5 362.5 L 337.5 262.5 C 337.5 180.425781 37.5 180.425781 37.5 262.5 Z M 37.5 262.5 " fill-opacity="1" fill-rule="nonzero"/></g></svg>