<svg xmlns="http://www.w3.org/2000/svg" xmlns:xlink="http://www.w3.org/1999/xlink" width="500" zoomAndPan="magnify" viewBox="0 0 375 78.749999" height="105" preserveAspectRatio="xMidYMid meet" version="1.0"><defs><g/><clipPath id="1c803c953a"><path d="M 92.660156 3.925781 L 157.703125 3.925781 L 157.703125 60 L 92.660156 60 Z M 92.660156 3.925781 " clip-rule="nonzero"/></clipPath><clipPath id="151637a64f"><path d="M 116 3.925781 L 157.703125 3.925781 L 157.703125 74.949219 L 116 74.949219 Z M 116 3.925781 " clip-rule="nonzero"/></clipPath></defs><g fill="#d0e8f2" fill-opacity="1"><g transform="translate(40.260267, 71.649047)"><g><path d="M 47.367188 -51.207031 L 47.367188 -65.789062 L 6.578125 -65.789062 L 6.578125 0 L 47.367188 0 L 47.367188 -14.582031 L 23.355469 -14.582031 L 23.355469 -25.65625 L 43.640625 -25.65625 L 43.640625 -40.132812 L 23.355469 -40.132812 L 23.355469 -51.207031 Z M 47.367188 -51.207031 "/></g></g></g><g clip-path="url(#1c803c953a)"><path fill="#fffbf0" d="M 92.667969 14.8125 L 110.988281 52.425781 L 108.773438 59.347656 L 157.699219 3.925781 L 119.933594 39.316406 L 108.097656 14.8125 Z M 92.667969 14.8125 " fill-opacity="1" fill-rule="evenodd"/></g><g clip-path="url(#151637a64f)"><path fill="#fffbf0" d="M 157.699219 3.925781 L 116.734375 63.679688 L 122.46875 74.949219 Z M 157.699219 3.925781 " fill-opacity="1" fill-rule="evenodd"/></g><g fill="#d0e8f2" fill-opacity="1"><g transform="translate(150.05543, 71.649122)"><g><path d="M 37.5 0.878906 C 56.140625 0.878906 71.273438 -14.253906 71.273438 -32.894531 C 71.273438 -51.535156 56.140625 -66.667969 37.5 -66.667969 C 18.75 -66.667969 3.726562 -51.535156 3.726562 -32.894531 C 3.726562 -14.253906 18.75 0.878906 37.5 0.878906 Z M 37.5 -15.570312 C 27.523438 -15.570312 20.066406 -22.917969 20.066406 -32.894531 C 20.066406 -42.871094 27.523438 -50.21875 37.5 -50.21875 C 47.367188 -50.21875 54.824219 -42.871094 54.824219 -32.894531 C 54.824219 -22.917969 47.367188 -15.570312 37.5 -15.570312 Z M 37.5 -15.570312 "/></g></g></g><g fill="#d0e8f2" fill-opacity="1"><g transform="translate(271.422298, 71.648974)"><g><path d="M 47.367188 -51.207031 L 47.367188 -65.789062 L 6.578125 -65.789062 L 6.578125 0 L 47.367188 0 L 47.367188 -14.582031 L 23.355469 -14.582031 L 23.355469 -25.65625 L 43.640625 -25.65625 L 43.640625 -40.132812 L 23.355469 -40.132812 L 23.355469 -51.207031 Z M 47.367188 -51.207031 "/></g></g></g><g fill="#d0e8f2" fill-opacity="1"><g transform="translate(224.137052, 71.649122)"><g><path d="M 47.917969 -65.789062 L -0.988281 -65.789062 L -0.988281 -51.207031 L 15.132812 -51.207031 L 15.132812 0 L 31.796875 0 L 31.796875 -51.207031 L 47.917969 -51.207031 Z M 47.917969 -65.789062 "/></g></g></g></svg>